<svg xmlns="http://www.w3.org/2000/svg" width="80" height="80" viewBox="0 0 80 80">
    <defs>
        <clipPath id="wgwq4ueyza">
            <path data-name="矩形 32" style="fill:none" d="M0 0h67v47.527H0z"/>
        </clipPath>
    </defs>
    <path data-name="矩形 1436" style="fill:none" d="M0 0h80v80H0z"/>
    <g data-name="组 40">
        <g data-name="组 39" style="clip-path:url(#wgwq4ueyza)" transform="translate(6.5 16.236)">
            <path data-name="路径 153" d="M67.445 24.062A23.479 23.479 0 1 1 43.967.583a23.478 23.478 0 0 1 23.478 23.479" transform="translate(-.445 -.012)" style="fill:#f0f1f2"/>
            <path data-name="路径 154" d="M56.4 1h-4.887v5.87H61.3v-.979A4.893 4.893 0 0 0 56.4 1" transform="translate(-1.119 -.022)" style="fill:#f0f1f2"/>
            <path data-name="路径 155" d="M54.448 6.87H61.3v-.979A4.893 4.893 0 0 0 56.4 1h-4.887" transform="translate(-1.119 -.022)" style="stroke-miterlimit:10;stroke-width:2px;stroke:#000;fill:none"/>
            <path data-name="路径 156" d="M20.513 5.891A4.891 4.891 0 0 1 25.4 1h30.331a4.891 4.891 0 0 0-4.891 4.891v35.218A4.893 4.893 0 0 1 45.948 46H20.513z" transform="translate(-.446 -.022)" style="fill:#fff"/>
            <path data-name="路径 157" d="M20.513 6.868v-.977A4.891 4.891 0 0 1 25.4 1h30.331a4.891 4.891 0 0 0-4.891 4.891v35.218A4.893 4.893 0 0 1 45.948 46H20.513v-5.865" transform="translate(-.446 -.022)" style="stroke-miterlimit:10;stroke-width:2px;stroke:#000;fill:none"/>
            <path data-name="路径 158" d="M14.512 42a4.891 4.891 0 0 0 4.888 4.891h26.417A4.891 4.891 0 0 1 40.925 42z" transform="translate(-.315 -.912)" style="fill:#fff"/>
            <path data-name="路径 159" d="M14.512 42a4.891 4.891 0 0 0 4.888 4.891h26.417A4.891 4.891 0 0 1 40.925 42z" transform="translate(-.315 -.912)" style="stroke-miterlimit:10;stroke-width:2px;stroke:#000;fill:none"/>
            <path data-name="路径 160" d="M55.453 13.918 43.578 25.792l-4.948-4.947-3.958 3.955 8.906 8.906 15.833-15.829z" transform="translate(-.753 -.302)" style="fill:#b3b3b3"/>
            <path data-name="路径 161" d="M55.453 13.918 43.578 25.792l-4.948-4.947-3.958 3.955 8.906 8.906 15.833-15.829z" transform="translate(-.753 -.302)" style="stroke-miterlimit:10;stroke-width:2px;stroke:#000;fill:none"/>
            <path data-name="直线 10" transform="translate(38.132 7.802)" style="stroke:#c6c8ca;stroke-miterlimit:10;stroke-width:2px;fill:none" d="M0 0v5.87"/>
            <path data-name="直线 11" transform="translate(35.197 10.737)" style="stroke:#c6c8ca;stroke-miterlimit:10;stroke-width:2px;fill:none" d="M0 0h5.87"/>
            <path data-name="直线 12" transform="translate(38.132 7.802)" style="stroke:#c6c8ca;stroke-miterlimit:10;stroke-width:2px;fill:none" d="M0 0v5.87"/>
            <path data-name="直线 13" transform="translate(35.197 10.737)" style="stroke:#c6c8ca;stroke-miterlimit:10;stroke-width:2px;fill:none" d="M0 0h5.87"/>
        </g>
    </g>
    <g data-name="组 42">
        <g data-name="组 41" style="clip-path:url(#wgwq4ueyza)" transform="translate(6.5 16.236)">
            <path data-name="路径 162" d="M28.826 22.268c0 7.547-6.42 13.666-14.341 13.666S.144 29.815.144 22.268 6.564 8.6 14.485 8.6s14.341 6.12 14.341 13.668" transform="translate(-.003 -.187)" style="fill:#fff"/>
            <path data-name="路径 163" d="M20.627 28.001v6.783c0 1.741 1.544 3.136 3.611 3.363a1 1 0 0 0 .249.032h.344a1 1 0 0 0 .249-.032c2.067-.227 3.611-1.622 3.611-3.363v-2.5a.978.978 0 0 0-1.957 0v2.5c0 .73-.952 1.374-2.076 1.434-1.124-.06-2.076-.7-2.076-1.434v-6.783z"/>
            <path data-name="路径 164" d="M6.475 28.044v4c0 .78-.855 1.439-1.939 1.439a1.72 1.72 0 0 1-1.869-1.439v-.743a.978.978 0 1 0-1.957 0v.743a3.656 3.656 0 0 0 3.9 3.4 3.633 3.633 0 0 0 3.824-3.4v-4c0-.016-.008-.027-.009-.043H6.484c0 .016-.009.027-.009.043"/>
            <path data-name="路径 165" d="M11.287 34.97c0 1.325-1.643 2.444-3.589 2.444h-.34a.978.978 0 1 0 0 1.957h.34c3.058 0 5.546-1.974 5.546-4.4v-6.97h-1.957z"/>
            <path data-name="路径 166" d="M16.091 34.732a.978.978 0 1 0 1.957 0v-6.731h-1.957z"/>
            <path data-name="路径 167" d="M9.762 24.369a1.478 1.478 0 1 1-1.478-1.477 1.478 1.478 0 0 1 1.478 1.478"/>
            <path data-name="路径 168" d="M22.167 24.369a1.478 1.478 0 1 1-1.478-1.477 1.478 1.478 0 0 1 1.478 1.478"/>
            <path data-name="路径 169" d="M26.573 27.942a.978.978 0 0 1-.844-1.471l.2-.335a7.462 7.462 0 0 0 1.257-4.573c0-6.449-5.658-11.7-12.614-11.7s-12.615 5.251-12.615 11.7a7.459 7.459 0 0 0 1.4 4.824l-.792.577-.823.53A9.383 9.383 0 0 1 0 21.563C0 14.034 6.537 7.909 14.569 7.909s14.57 6.125 14.57 13.654a9.415 9.415 0 0 1-1.531 5.574l-.19.32a.979.979 0 0 1-.846.485"/>
        </g>
    </g>
</svg>
