<svg xmlns="http://www.w3.org/2000/svg" width="12.182" height="12.182" viewBox="0 0 12.182 12.182">
    <path data-name="路径 10360" d="m5.083 3.565 1.792-1.792a2.517 2.517 0 1 1 3.559 3.559L8.642 7.124l.706.707 1.792-1.792a3.534 3.534 0 1 0-5-5L4.351 2.833l.732.732zM7.1 8.63l-1.767 1.8a2.521 2.521 0 0 1-3.559-3.57l1.792-1.8-.707-.71-1.818 1.773a3.54 3.54 0 1 0 5 5.014l1.792-1.8L7.1 8.63z" transform="translate(0 .001)" style="fill:#afafaf"/>
    <path data-name="路径 10363" d="m724.726-42.254 2.57-2.606" transform="translate(-719.92 49.647)" style="fill:none;stroke:#afafaf;stroke-linecap:round"/>
</svg>
