<svg xmlns="http://www.w3.org/2000/svg" width="20" height="20" viewBox="0 0 20 20">
    <path data-name="路径 10906" d="M14.844 20H6.5a2.5 2.5 0 0 1 0-5h7a3.5 3.5 0 0 0 0-7H8.639a9.812 9.812 0 0 1-1.354 2H13.5a1.5 1.5 0 0 1 0 3h-7a4.5 4.5 0 0 0 0 9h9.593a10.415 10.415 0 0 1-1.249-2zM5 2a3 3 0 0 0-3 3c0 3.188 3 5 3 5s3-1.813 3-5a3 3 0 0 0-3-3zm0 4.5A1.5 1.5 0 1 1 6.5 5 1.5 1.5 0 0 1 5 6.5z" style="fill:#afafaf" transform="translate(-2 -2)"/>
    <path data-name="路径 10907" d="M19 14a3 3 0 0 0-3 3c0 3.188 3 5 3 5s3-1.813 3-5a3 3 0 0 0-3-3zm0 4.5a1.5 1.5 0 1 1 1.5-1.5 1.5 1.5 0 0 1-1.5 1.5z" style="fill:#afafaf" transform="translate(-2 -2)"/>
</svg>
