<svg xmlns="http://www.w3.org/2000/svg" width="23" height="22.042" viewBox="0 0 23 22.042">
    <defs>
        <style>
            .cls-1,.cls-2{fill:none;stroke:#0080ff;stroke-linejoin:round}.cls-2{stroke-linecap:round}
        </style>
    </defs>
    <g id="createSeed" transform="translate(-268.096 -612.723)">
        <path id="路径_10179" data-name="路径 10179" class="cls-1" d="m283.6 617.223-4 1-4-1v11l4 2 4-2z"/>
        <path id="路径_10180" data-name="路径 10180" class="cls-1" d="m275.6 628.223 4 6.042 4-6.042"/>
        <path id="路径_10181" data-name="路径 10181" class="cls-1" d="m283.6 617.265-4-4.042-4 4.042"/>
        <path id="直线_223" data-name="直线 223" class="cls-1" transform="translate(279.596 613.224)" d="M0 0v21.042"/>
        <path id="直线_224" data-name="直线 224" class="cls-2" transform="translate(285.096 614.724)" d="M0 1.876 1.875 0"/>
        <path id="直线_225" data-name="直线 225" class="cls-2" transform="translate(285.096 629.85)" d="m0 0 1.875 1.874"/>
        <path id="直线_226" data-name="直线 226" class="cls-2" transform="translate(287.596 623.224)" d="M0 0h3"/>
        <path id="直线_227" data-name="直线 227" class="cls-2" transform="translate(272.221 614.724)" d="M1.875 1.876 0 0"/>
        <path id="直线_228" data-name="直线 228" class="cls-2" transform="translate(272.221 629.85)" d="M1.875 0 0 1.874"/>
        <path id="直线_229" data-name="直线 229" class="cls-2" transform="translate(268.596 623.224)" d="M3 0H0"/>
    </g>
</svg>
