<svg xmlns="http://www.w3.org/2000/svg" width="20" height="19" viewBox="0 0 20 19">
    <g data-name="组 12059">
        <path data-name="路径 10826" d="m21.706 5.292-3-3A1 1 0 0 0 18 2H6a1 1 0 0 0-.707.293l-3 3A.994.994 0 0 0 2 6v13a2 2 0 0 0 2 2h16a2 2 0 0 0 2-2V6a.994.994 0 0 0-.294-.708zM6.414 4h11.172l1 1H5.414zM4 19V7h16v12z" style="fill:#afafaf" transform="translate(-2 -2)"/>
        <path data-name="路径 10827" d="M7 14h3v3h4v-3h3l-5-5z" style="fill:#afafaf" transform="translate(-2 -2)"/>
    </g>
</svg>
