<svg xmlns="http://www.w3.org/2000/svg" width="17" height="15.61"><defs><style>.c{fill:none;stroke:#9c9c9c;stroke-linecap:round;stroke-linejoin:round}</style></defs><g transform="translate(-80.389 -310.993)"><circle class="c" cx=".348" cy=".348" r=".348" transform="translate(92.02 319.842)"/><path class="c" d="M83.672 315.667h.696m1.391 0h.696m1.391 0h.696m1.391 0h.696m1.391 0h.696m-9.044 9.045h.696m1.391 0h.696m1.391 0h.696m1.391 0h.696m1.391 0h.696"/><rect class="c" width="6.261" height="3.479" rx="1.739" transform="translate(90.628 318.45)"/><path class="c" d="M94.803 318.45v-2.087a2.093 2.093 0 0 0-2.087-2.087h-9.74m8.349-1.392h-8.349a.7.7 0 0 0 0 1.391"/><path class="c" d="M94.8 321.929v2.087a2.094 2.094 0 0 1-2.087 2.087h-9.74a2.093 2.093 0 0 1-2.087-2.087V313.58a2.092 2.092 0 0 1 2.087-2.087h8.349c1.147 0 2.087.626 2.087 1.391v1.391"/></g></svg>
