<svg xmlns="http://www.w3.org/2000/svg" width="88.851" height="85.781" viewBox="0 0 88.851 85.781">
    <g transform="translate(.151)">
        <path data-name="路径 10832" d="m79.156 60.448 15.635 32.4A.88.88 0 0 1 94 94.106H53.476a.88.88 0 0 1-.792-1.263l15.657-32.4z" transform="translate(-9.549 -10.976)" style="fill:#5fc0e9;opacity:.6"/>
        <path data-name="路径 10833" d="M49.617 90.006 66.7 54.582V37.627h13.012v16.955l17.079 35.424a1.3 1.3 0 0 1-1.17 1.857H50.787a1.3 1.3 0 0 1-1.17-1.857z" transform="translate(-8.985 -6.832)" style="stroke-width:1.5px;stroke-miterlimit:10;stroke:#fff;fill:none"/>
        <path data-name="直线 363" transform="translate(57.647 46.259)" style="stroke-width:1.5px;stroke-miterlimit:10;stroke:#fff;fill:none" d="M13.092 0H0"/>
        <circle data-name="椭圆 122" cx=".909" cy=".909" r=".909" transform="translate(68.776 57.024)" style="opacity:.83;stroke-width:.8px;stroke:#2a2e38;stroke-miterlimit:10;fill:none"/>
        <path data-name="路径 10834" d="M72.658 65.171a1.273 1.273 0 1 0 1.273-1.271 1.272 1.272 0 0 0-1.273 1.271z" transform="translate(-13.192 -11.603)" style="stroke-width:.7px;stroke:#2a2e38;stroke-miterlimit:10;fill:none"/>
        <path data-name="路径 10835" d="M66.882 77.939a.8.8 0 1 0 .8-.8.8.8 0 0 0-.8.8z" transform="translate(-12.143 -14.007)" style="stroke-width:.7px;stroke:#2a2e38;stroke-miterlimit:10;fill:none"/>
        <circle data-name="椭圆 123" cx="2.837" cy="2.837" r="2.837" transform="translate(61.139 63.279)" style="opacity:.83;stroke:#2a2e38;stroke-miterlimit:10;fill:none"/>
        <circle data-name="椭圆 124" cx="1.091" cy="1.091" r="1.091" transform="translate(50.883 71.715)" style="opacity:.83;stroke-width:.8px;stroke:#2a2e38;stroke-miterlimit:10;fill:none"/>
        <circle data-name="椭圆 125" cx=".909" cy=".909" r=".909" transform="translate(75.613 75.134)" style="stroke-width:.6px;opacity:.83;stroke:#2a2e38;stroke-miterlimit:10;fill:none"/>
        <path data-name="路径 10836" d="M80.613 97.435a1.309 1.309 0 1 0 1.309-1.309 1.31 1.31 0 0 0-1.309 1.309z" transform="translate(-14.637 -17.452)" style="stroke-width:.7px;stroke:#2a2e38;stroke-miterlimit:10;fill:none"/>
        <path data-name="路径 10837" d="M88.122 85.348a1.455 1.455 0 1 0 1.454-1.454 1.454 1.454 0 0 0-1.454 1.454z" transform="translate(-16 -15.232)" style="stroke-width:.7px;stroke:#2a2e38;stroke-miterlimit:10;fill:none"/>
        <path data-name="路径 10838" d="M72.83 90.141a1.1 1.1 0 1 0 1.1-1.1 1.1 1.1 0 0 0-1.1 1.1z" transform="translate(-13.223 -16.166)" style="stroke-width:.7px;stroke:#2a2e38;stroke-miterlimit:10;fill:none"/>
        <circle data-name="椭圆 126" cx=".753" cy=".753" r=".753" transform="translate(49.015 78.492)" style="stroke-width:.7px;opacity:.83;stroke:#2a2e38;stroke-miterlimit:10;fill:none"/>
        <path data-name="矩形 1450" transform="translate(55.697 27.545)" style="stroke-linecap:round;stroke-linejoin:round;stroke-width:1.5px;stroke:#fff;fill:none" d="M0 0h17.042v3.251H0z"/>
        <path data-name="路径 10839" d="m23.407 70.714 11.94 24.741a.671.671 0 0 1-.606.963H3.795a.672.672 0 0 1-.6-.964l11.958-24.74z" transform="translate(-.567 -12.839)" style="fill:#5fc0e9;opacity:.6"/>
        <path data-name="路径 10840" d="m.848 93.288 13.044-27.054V53.285h9.94v12.949l13.044 27.054a.991.991 0 0 1-.894 1.418H1.742a.991.991 0 0 1-.894-1.418z" transform="translate(-.136 -9.675)" style="stroke-width:1.5px;stroke-miterlimit:10;stroke:#fff;fill:none"/>
        <path data-name="直线 364" transform="translate(13.707 55.42)" style="stroke-width:1.5px;stroke-miterlimit:10;stroke:#fff;fill:none" d="M9.999 0H0"/>
        <path data-name="路径 10841" d="M27.132 78.455a.694.694 0 1 0 .694-.694.694.694 0 0 0-.694.694z" transform="translate(-4.926 -14.12)" style="opacity:.78;stroke-width:.6px;stroke:#2a2e38;stroke-miterlimit:10;fill:none"/>
        <circle data-name="椭圆 127" cx=".972" cy=".972" r=".972" transform="translate(15.096 60.032)" style="opacity:.83;stroke-width:.8px;stroke:#2a2e38;stroke-miterlimit:10;fill:none"/>
        <path data-name="路径 10842" d="M14.033 84.072a.611.611 0 1 0 .611-.611.611.611 0 0 0-.611.611z" transform="translate(-2.548 -15.154)" style="opacity:.78;stroke-width:.6px;stroke:#2a2e38;stroke-miterlimit:10;fill:none"/>
        <circle data-name="椭圆 128" cx="2.166" cy="2.166" r="2.166" transform="translate(16.373 68.418)" style="stroke-width:.9px;opacity:.83;stroke:#2a2e38;stroke-miterlimit:10;fill:none"/>
        <circle data-name="椭圆 129" cx=".833" cy=".833" r=".833" transform="translate(8.541 74.863)" style="stroke-width:.6px;opacity:.83;stroke:#2a2e38;stroke-miterlimit:10;fill:none"/>
        <path data-name="路径 10843" d="M33.512 95.355a.694.694 0 1 0 .694-.694.694.694 0 0 0-.694.694z" transform="translate(-6.084 -17.188)" style="opacity:.78;stroke-width:.6px;stroke:#2a2e38;stroke-miterlimit:10;fill:none"/>
        <path data-name="路径 10844" d="M24.52 98.961a1 1 0 1 0 1-1 1 1 0 0 0-1 1z" transform="translate(-4.452 -17.786)" style="opacity:.78;stroke-width:.6px;stroke:#2a2e38;stroke-miterlimit:10;fill:none"/>
        <path data-name="路径 10845" d="M30.254 89.731a1.111 1.111 0 1 0 1.111-1.111 1.111 1.111 0 0 0-1.111 1.111z" transform="translate(-5.493 -16.089)" style="opacity:.78;stroke-width:.6px;stroke:#2a2e38;stroke-miterlimit:10;fill:none"/>
        <path data-name="路径 10846" d="M18.576 93.391a.843.843 0 1 0 .844-.844.843.843 0 0 0-.844.844z" transform="translate(-3.373 -16.803)" style="opacity:.78;stroke-width:.6px;stroke:#2a2e38;stroke-miterlimit:10;fill:none"/>
        <path data-name="路径 10847" d="M8.693 98.368a.575.575 0 1 0 .575-.575.576.576 0 0 0-.575.575z" transform="translate(-1.578 -17.755)" style="opacity:.78;stroke-width:.6px;stroke:#2a2e38;stroke-miterlimit:10;fill:none"/>
        <path data-name="矩形 1451" transform="translate(12.218 41.127)" style="stroke-linecap:round;stroke-linejoin:round;stroke-width:1.5px;stroke:#fff;fill:none" d="M0 0h13.016v2.482H0z"/>
        <path data-name="路径 10848" d="M19.393 39.231a2.365 2.365 0 1 0 2.364-2.364 2.365 2.365 0 0 0-2.364 2.364z" transform="translate(-5.521 -7.695)" style="stroke-miterlimit:10;stroke:#fff;fill:none"/>
        <path data-name="路径 10849" d="M78.335 19.4a4.493 4.493 0 1 0 4.493-4.493 4.493 4.493 0 0 0-4.493 4.493z" transform="translate(-14.223 -5.707)" style="stroke-miterlimit:10;stroke:#fff;fill:none"/>
        <path data-name="路径 10850" d="M72.845 2.879A2.128 2.128 0 1 0 74.973.751a2.128 2.128 0 0 0-2.128 2.128z" transform="translate(-22.226 .863)" style="stroke-miterlimit:10;stroke:#fff;fill:none"/>
        <circle data-name="椭圆 130" cx="3.784" cy="3.784" r="3.784" transform="translate(21 10.309)" style="stroke-miterlimit:10;stroke:#fff;fill:none"/>
        <path data-name="矩形 1452" style="fill:none" d="M0 0h88.549v85.645H0z"/>
    </g>
</svg>
