<svg xmlns="http://www.w3.org/2000/svg" width="18.899" height="20.521">
  <defs>
    <style>.c2{fill:#4b5563}.c{fill:none;stroke:#4b5563;stroke-width:1px;stroke-linejoin:round}</style>
  </defs>
  <path class="c2" d="M3.751 3.5a1.373 1.373 0 1 0 1.372 1.372A1.378 1.378 0 0 0 3.751 3.5zm.522 1.895a.747.747 0 0 1-.522.213.734.734 0 0 1-.735-.735.735.735 0 1 1 1.256.522z"/>
  <path class="c2" d="M7.056 6.032a.454.454 0 0 0 .406-.425v-.019a5.235 5.235 0 0 0 .077-.715 3.971 3.971 0 0 0-.077-.735c-.058-.251-.213-.425-.425-.425h-.039a.858.858 0 0 1-.85-.851 1.128 1.128 0 0 1 .077-.329.551.551 0 0 0-.193-.657l-.947-.522a.606.606 0 0 0-.638.135 1.306 1.306 0 0 1-.677.387 1.282 1.282 0 0 1-.677-.387.606.606 0 0 0-.638-.135h-.019l-.967.541a.535.535 0 0 0-.174.638.961.961 0 0 1 .077.329.858.858 0 0 1-.851.851H.482a.454.454 0 0 0-.406.425 3.533 3.533 0 0 0 0 1.469c.058.271.213.425.425.425H.54a.858.858 0 0 1 .851.851 1.172 1.172 0 0 1-.077.329.551.551 0 0 0 .193.657l.928.522a.571.571 0 0 0 .638-.135 1.2 1.2 0 0 1 .7-.406 1.264 1.264 0 0 1 .7.425.568.568 0 0 0 .425.174.515.515 0 0 0 .232-.058l.947-.522a.511.511 0 0 0 .174-.638.738.738 0 0 1-.077-.329.858.858 0 0 1 .851-.851h.039zm-.193-.657v.039h-.039a1.5 1.5 0 0 0-1.3 1.469 1.314 1.314 0 0 0 .077.445l.019.039-.735.406-.019-.019a2.124 2.124 0 0 0-.271-.232 1.473 1.473 0 0 0-.831-.329 1.583 1.583 0 0 0-.831.31 3.294 3.294 0 0 0-.271.232l-.02.019-.735-.367.019-.039a1.412 1.412 0 0 0 .077-.445 1.482 1.482 0 0 0-1.3-1.469H.664v-.039a4.09 4.09 0 0 1-.039-.5c0-.135.019-.309.039-.5v-.039h.039a1.5 1.5 0 0 0 1.3-1.469 1.314 1.314 0 0 0-.077-.445l-.019-.077.773-.425.019.019a2.121 2.121 0 0 0 .271.232 1.527 1.527 0 0 0 .812.309 1.486 1.486 0 0 0 .812-.29 1.9 1.9 0 0 0 .271-.213l.019-.019.735.406-.019.039a1.2 1.2 0 0 0-.077.445 1.482 1.482 0 0 0 1.3 1.469h.039v.039a3.291 3.291 0 0 1 0 1.005z"/>
  <path class="c" d="m16.105 9.433-3.06-1.693-1.902-2.934-6.36 6.822 1.32 3.556 3.64 1.07z"/>
  <path class="c" d="m4.782 11.627-1.013 6.06 5.975-1.433m6.337-6.796-.144-4.82-4.818.194"/>
  <path d="M0 0v17.843" transform="rotate(43 2.08 22.55)" style="fill:none;stroke:#4b5563;stroke-width:1px"/>
</svg>
