<svg xmlns="http://www.w3.org/2000/svg" width="21" height="19.798" viewBox="0 0 21 19.798">
    <g data-name="组 7338">
        <path data-name="路径 8119" d="M8 0H0l4 4 4-4z" style="stroke-linecap:round;fill:none;stroke:#5fc0e9;stroke-linejoin:round" transform="translate(12.5 15.081)"/>
    </g>
    <g data-name="组 7341">
        <path data-name="路径 8123" d="M0 0h8.471" style="stroke-linecap:round;fill:none;stroke:#5fc0e9;stroke-linejoin:round" transform="translate(1.899 14.29)"/>
    </g>
    <g data-name="组 7342">
        <path data-name="路径 8124" d="M0 0h14.729" transform="translate(2.205 4.684)" style="fill:none;stroke:#5fc0e9;stroke-linejoin:round"/>
    </g>
    <g data-name="组 7343">
        <path data-name="路径 8125" d="M17.989 0H0" style="stroke-linecap:round;fill:none;stroke:#5fc0e9;stroke-linejoin:round" transform="translate(.512 9.487)"/>
    </g>
    <g data-name="组 7344">
        <path data-name="路径 8126" d="M8.513 18.4A9.119 9.119 0 0 1 0 9.206 9.1 9.1 0 0 1 9 0a10.851 10.851 0 0 1 7.408 3.789A9.076 9.076 0 0 1 18.34 9.1a7.268 7.268 0 0 1-.1 1.938" style="stroke-linecap:round;fill:none;stroke:#5fc0e9;stroke-linejoin:round" transform="translate(.5 .681)"/>
    </g>
    <g data-name="组 7345">
        <path data-name="路径 8127" d="M4.446 0c-6 5.2-6.645 11.982-.645 18.385" transform="translate(5.277 .707)" style="stroke-linecap:round;fill:none;stroke:#5fc0e9;stroke-linejoin:round"/>
    </g>
    <g data-name="组 7346">
        <path data-name="路径 8128" d="M0 0a15.692 15.692 0 0 1 4.445 10.974" style="stroke-linecap:round;fill:none;stroke:#5fc0e9;stroke-linejoin:round" transform="translate(9.756 .707)"/>
    </g>
</svg>
