<svg xmlns="http://www.w3.org/2000/svg" width="21" height="19.798" viewBox="0 0 21 19.798">
    <defs>
        <style>
            .cls-2{stroke:#fff;stroke-linejoin:round;stroke-linecap:round;fill:none}
        </style>
    </defs>
    <g id="iconLang" transform="translate(-730.512 -1553.32)">
        <g id="组_7338" data-name="组 7338" transform="translate(743.012 1568.4)">
            <path id="路径_8119" data-name="路径 8119" d="M8 0H0l4 4 4-4z" style="stroke-linecap:round;stroke:#fff;stroke-linejoin:round;fill:#fff"/>
        </g>
        <g id="组_7341" data-name="组 7341" transform="translate(732.411 1567.609)">
            <path id="路径_8123" data-name="路径 8123" class="cls-2" d="M0 0h8.471"/>
        </g>
        <g id="组_7342" data-name="组 7342" transform="translate(732.717 1558.003)">
            <path id="路径_8124" data-name="路径 8124" d="M0 0h14.729" style="fill:none;stroke:#fff;stroke-linejoin:round"/>
        </g>
        <g id="组_7343" data-name="组 7343" transform="translate(731.024 1562.806)">
            <path id="路径_8125" data-name="路径 8125" class="cls-2" d="M17.989 0H0"/>
        </g>
        <g id="组_7344" data-name="组 7344" transform="translate(731.012 1554)">
            <path id="路径_8126" data-name="路径 8126" class="cls-2" d="M8.513 18.4A9.119 9.119 0 0 1 0 9.206 9.1 9.1 0 0 1 9 0a10.851 10.851 0 0 1 7.408 3.789A9.076 9.076 0 0 1 18.34 9.1a7.268 7.268 0 0 1-.1 1.938"/>
        </g>
        <g id="组_7345" data-name="组 7345" transform="translate(735.789 1554.026)">
            <path id="路径_8127" data-name="路径 8127" class="cls-2" d="M4.446 0c-6 5.2-6.645 11.982-.645 18.385"/>
        </g>
        <g id="组_7346" data-name="组 7346" transform="translate(740.268 1554.026)">
            <path id="路径_8128" data-name="路径 8128" class="cls-2" d="M0 0a15.692 15.692 0 0 1 4.445 10.974"/>
        </g>
    </g>
</svg>
