<svg xmlns="http://www.w3.org/2000/svg" viewBox="0 0 794.5 309.6"><path d="M275 196.3h-32.8l.5-5.2 6.9.3 7-66.9-6.9.2.5-5.5h28c16.8 0 24.5 4.2 23.1 17.6-1.2 11.6-7.8 16.7-20.2 17.8 14.4.5 20.4 4 18.6 17.4l-2.1 15c-.5 3.2.4 4.4 2.6 4.2l2.2-.2-.5 5.2h-10.2c-8.9 0-13.1-4.1-11.6-13.4l1.8-13.1c1.4-9.2-.5-12.1-6.4-12.1h-4.1l-3.4 33.8 7.6-.3-.6 5.2zm-3-43.7h3.4c4.8 0 7.5-1.8 8.6-12.9 1.5-13.9-.9-14.8-5.6-14.8H275l-3 27.7zm37.2 29.5l3.8-36.6-5.1.4.5-5h20.7l-3.9 36.8c-1 9.2-1 12.4 2.9 12.4s6.8-4.3 7.6-11.4l3.5-33.3-6.2.3.5-4.9h21.7l-5.3 51 5.2-.2-.5 4.6h-21l.9-6.1c-3.5 4.4-8.8 7-14.4 7-9.8.2-11.9-5.4-10.9-15zm49.5 9.7l5.2.2 4.9-46.4-5.3.3.5-4.9h20.8l-.8 6c4.1-4.3 9.7-6.8 15.7-6.9 6.6 0 9.2 2.8 9.7 7.7 5.9-5.7 11-7.7 16.8-7.7 8.7 0 10 5.5 9 14.6l-3.9 37.3 5.1-.2-.4 4.6h-24.6l.4-4.6 3.8.2 3.5-33c1-9.3.8-12-2.7-12s-6.6 3.8-7.4 11.1l-3.6 33.9 3.7-.2-.5 4.6h-22.9l.4-4.6 3.7.2 3.5-33c1-9.3.6-12-3-12-3.4 0-6.4 3.8-7.1 11.1l-3.6 33.9 3.7-.2-.4 4.6h-24.6l.4-4.6zm107.1-2.7l-.5 7.3h-9.5l2.8-27.4h9.2c-1 17.8 1.8 24.1 11.1 24.1 6.4 0 9.9-4.4 10.8-13 2.2-20.9-30-15.1-27.1-43.2 1.2-11.3 7.5-18.5 18.2-18.5 5.5 0 10.1 1.8 12.8 6.4l.3-5.5h9.2l-2.5 23.5h-8.8c.9-15-1.1-20.2-8.8-20.2-5.8 0-8.8 3.6-9.5 11.7-2.2 20.6 29.9 13.8 27.1 42.1-1.4 12.8-8.8 20.9-20.4 20.9-6.9-.1-11.6-3.3-14.4-8.2zm40.5 11.4h11.4c-.9 8.6.2 11.8 5.3 11.8 4.8 0 7.2-3.8 8.1-11.8l1.2-11.1c-3.7 4.5-8.3 6.9-13.5 6.9-8.2 0-10.7-5-9.8-15l3.8-36.1-5.4.3.4-3.8h16.7l-3.7 35.1c-1.2 10.8-.8 14.1 3.6 14.1 5.1 0 8.2-4.9 9.1-13.1l3.5-32.7-7.2.2.3-3.7h18.6l-6 56.3c-1.2 11.6-8.5 17.6-20.2 17.6s-17.4-3.9-16.2-15zm45-21.9h8.4c-1.3 12.2 1.1 14.9 6.7 14.9 5.1 0 7.7-2.9 8.3-8.9 1.6-15.1-22.7-7.8-20.6-29 1-9.1 6.7-14.7 16.5-14.7s15.4 3.6 13.8 17.9h-9c1.5-12.7-1-14.4-5.3-14.4-3.7 0-5.8 1.8-6.6 8.4-1.5 14.8 22.7 7.4 20.5 28.8-1 9-7.7 15.6-17.8 15.6-10.9 0-16.4-4.6-14.9-18.6zm52.7 18.6c-8 0-12.9-4.9-12-13.3l4-38.6h-6.2l.3-3.6h6.5l3.6-14.5h9.1l-1.5 14.5H619l-.4 3.6h-11l-3.9 36.8c-1 8.9-1 11.6 2.3 11.6s4.7-2.9 6.3-18.7h6.4c-1.1 16.1-4.8 22.2-14.7 22.2zm35.8 0c-11.7 0-19.4-4.8-16.9-28.1 2.6-24.2 11.4-28.1 20.2-28.1 11.6 0 17.5 4.5 14.6 25.6H635c-.1.6-.2 1.4-.3 2.1-2.3 22.1.4 25 6.4 25s8.7-3.9 10.2-17.4h6.6c-1.7 15.3-7.3 20.9-18.1 20.9zm-4.4-34.3h11.3c1.6-14.1 1.5-18.5-3.2-18.5-4.1 0-6.1 2.1-8.1 18.5zm24.1 30.1l5.5.1 5-47.8-5.5.2.4-3.7h16.9l-.9 6.1c3.7-4.3 8.8-6.9 13.6-6.9 5.7 0 8.7 2.6 9.2 7.8 4.9-5.6 9.5-7.8 14.6-7.8 7.8 0 9.6 4.8 8.8 13.8l-4.1 38.4 5.4-.1-.4 3.4h-21.1l.4-3.4 4.3.1 3.6-34c1.1-10.6.3-12.9-3.5-12.9-3.5 0-7.5 3.4-8.4 12.4l-3.6 34.4 4.3-.1-.3 3.4h-20.1l.3-3.4 4.3.1 3.6-34c1.2-10.8.4-12.9-3.6-12.9-3.2 0-7.4 3.4-8.3 12.4l-3.6 34.4 4.1-.1-.3 3.4h-21l.4-3.3zm-463.8-35.7c.1-10.1-.8-20.2-2.6-30.1.1-.3.1-.6 0-.9l-2.5-12.7c-.2-.8-.7-1.4-1.4-1.8-3.2-9.5-6.4-14.1-6.7-14.5-.5-.7-1.2-1.1-2.1-1.1H104c-.8 0-1.6.4-2.1 1.1-.3.4-3.5 5-6.7 14.5-.7.3-1.3 1-1.4 1.8l-2.5 12.7c-.1.3-.1.6 0 .9-1.8 9.9-2.7 20-2.6 30.1-.1 10.1.8 20.2 2.6 30.1-.1.3-.1.6 0 .9l2.5 12.7c.2.8.7 1.5 1.4 1.8 3.2 9.5 6.4 14.1 6.7 14.5.5.7 1.2 1.1 2.1 1.1h76.4c.8 0 1.6-.4 2.1-1.1.3-.4 3.5-5 6.7-14.5.7-.3 1.2-1 1.4-1.8l2.5-12.7c.1-.3.1-.6 0-.9 1.8-9.9 2.6-20 2.6-30.1zm-21 56c1.3-3.3 2.3-6.7 3.2-10.2h5.6c-1.2 3.5-2.8 6.9-4.6 10.2h-4.2zm-59.5 0c-1.4-3.3-2.5-6.7-3.4-10.2h12.4c.6 4.6 1.1 8 1.5 10.2h-10.5zm-9.8 0c-1.8-3.3-3.4-6.7-4.6-10.2h5.7c.9 3.5 1.9 6.9 3.2 10.2h-4.3zm4.2-112.1c-1.3 3.3-2.3 6.7-3.2 10.2h-5.7c1.2-3.5 2.8-6.9 4.6-10.2h4.3zm59.6 0c1.4 3.3 2.5 6.7 3.4 10.2h-12.4c-.6-4.6-1.1-8-1.5-10.2h10.5zm9.8 0c1.8 3.3 3.4 6.7 4.6 10.2H178c-.9-3.5-1.9-6.9-3.2-10.2h4.2zm-2.5 96.8H98.4l-1.5-7.6h90.6L186 198h-9.5zm-82.7-40.7c0-9.4.7-18.8 2.3-28h7c-1.2 9.3-1.7 18.6-1.7 28 0 9.4.5 18.7 1.7 28h-7c-1.6-9.2-2.4-18.6-2.3-28zm14.1-40.7H186l1.5 7.6H96.9l1.5-7.6h9.5zm70 40.7c0 9.4-.5 18.7-1.7 28h-14.4c.4-6.7.7-14.6.8-23.7 0-1.4-1.1-2.6-2.5-2.6s-2.5 1.1-2.6 2.5c-.1 9.2-.4 17.1-.8 23.8h-29c-.5-7.7-.8-17-.8-28s.3-20.4.8-28h28.9c.2 3.6.4 7.6.6 12 0 1.4 1.2 2.5 2.6 2.5h.1c1.4-.1 2.5-1.2 2.4-2.6-.1-4.3-.3-8.2-.5-11.9h14.3c1.2 9.3 1.8 18.6 1.8 28zm-71.3 0c0-9.4.5-18.7 1.7-28h14.3c-.5 7.8-.8 17.1-.8 28s.3 20.2.8 28h-14.3c-1.2-9.3-1.8-18.6-1.7-28zm74.7 28c1.2-9.3 1.7-18.6 1.7-28 0-9.4-.5-18.7-1.7-28h7c1.6 9.2 2.4 18.6 2.3 28 0 9.4-.7 18.8-2.3 28h-7zm-26.5-76c.1.7.2 1.4.3 2.2h-25.8c.6-4.8 1.2-8.2 1.6-10.2h22.6c.3 1.5.8 4.1 1.3 8zm-30.6 2.2h-12.5c.9-3.5 2-6.9 3.4-10.2h10.5c-.3 2.2-.9 5.5-1.4 10.2zm6.4 100.5c-.3-1.9-.8-4.8-1.3-8.9h25.8c-.6 4.8-1.2 8.2-1.6 10.2h-22.6c-.1-.3-.2-.8-.3-1.3zm29.6-8.9h12.4c-.9 3.5-2 6.9-3.4 10.2h-10.5c.4-2.2.9-5.5 1.5-10.2zm2.3-51.7c0 .7-.3 1.3-.7 1.8-.5.5-1.1.8-1.8.8-1.4 0-2.5-1.1-2.6-2.5 0-1.4 1.1-2.5 2.5-2.6 1.5 0 2.6 1.1 2.6 2.5z"/></svg>
