<svg xmlns="http://www.w3.org/2000/svg" viewBox="0 0 128 128" xml:space="preserve"><path d="M120 64c.1-10.6-.8-21.1-2.7-31.5.1-.3.1-.7 0-1l-2.7-13.3c-.2-.8-.7-1.5-1.5-1.9-1.6-5.3-4-10.4-7-15.2-.4-.7-1.2-1.1-2.1-1.1H24c-.9 0-1.7.4-2.2 1.1-3 4.7-5.3 9.8-7 15.2-.8.4-1.3 1.1-1.5 1.9l-2.7 13.3c-.1.3-.1.7 0 1C8.8 42.9 7.9 53.4 8 64c-.1 10.6.8 21.1 2.7 31.5-.1.3-.1.7 0 1l2.7 13.3c.2.8.7 1.5 1.5 1.9 1.6 5.3 4 10.4 7 15.2.5.7 1.3 1.1 2.2 1.1h80c.9 0 1.7-.4 2.2-1.1 3-4.7 5.3-9.8 7-15.2.8-.4 1.3-1.1 1.5-1.9l2.7-13.3c.1-.3.1-.7 0-1 1.7-10.4 2.6-20.9 2.5-31.5zm-21.9 58.7c1.3-3.5 2.4-7 3.4-10.7h5.9c-1.3 3.7-2.9 7.3-4.8 10.7h-4.5zm-62.4 0c-1.4-3.5-2.6-7-3.6-10.7h13c.6 4.8 1.2 8.4 1.6 10.7h-11zm-10.2 0c-1.9-3.4-3.5-7-4.8-10.7h5.9c.9 3.6 2 7.2 3.4 10.7h-4.5zM29.9 5.3c-1.3 3.5-2.4 7-3.4 10.7h-5.9c1.3-3.7 2.9-7.3 4.8-10.7h4.5zm62.4 0c1.4 3.5 2.6 7 3.6 10.7h-13c-.6-4.8-1.2-8.4-1.6-10.7h11zm10.2 0c1.9 3.4 3.5 7 4.8 10.7h-5.9c-.9-3.6-2-7.2-3.4-10.7h4.5zm-2.6 101.4H18.2l-1.6-8h94.8l-1.6 8h-9.9zM13.3 64c-.1-9.8.8-19.6 2.4-29.3H23c-2.3 19.5-2.3 39.2 0 58.7h-7.3c-1.6-9.8-2.4-19.6-2.4-29.4zm14.8-42.7h81.7l1.6 8H16.6l1.6-8h9.9zM101.3 64c0 9.8-.6 19.6-1.8 29.3h-15c.4-7.1.7-15.3.8-24.8 0-1.5-1.2-2.7-2.6-2.7-1.5 0-2.6 1.2-2.7 2.6-.1 9.7-.4 17.9-.8 24.9H48.8c-.5-8-.8-17.8-.8-29.3 0-11.6.4-21.4.8-29.3h30.3c.2 3.8.4 8 .6 12.6 0 1.4 1.2 2.6 2.7 2.6h.1c1.5-.1 2.6-1.3 2.6-2.7-.1-4.5-.3-8.6-.6-12.4h15c1.3 9.6 1.9 19.4 1.8 29.2zm-74.6 0c0-9.8.6-19.6 1.8-29.3h15c-.5 8.1-.8 17.8-.8 29.3s.3 21.2.8 29.3h-15c-1.3-9.7-1.9-19.5-1.8-29.3zm78.2 29.3c2.3-19.5 2.3-39.2 0-58.7h7.3c3.3 19.4 3.3 39.2 0 58.7h-7.3zM77.2 13.7c.1.7.2 1.5.3 2.3h-27c.6-5 1.2-8.5 1.6-10.7h23.7c.4 1.7.8 4.4 1.4 8.4zM45.1 16h-13c.9-3.6 2.1-7.2 3.6-10.7h11c-.4 2.3-1 5.9-1.6 10.7zm6.8 105.3c-.4-2-.9-5-1.4-9.3h27c-.6 5-1.2 8.6-1.7 10.7H52.2c-.1-.4-.2-.9-.3-1.4zm31-9.3h13c-.9 3.6-2.1 7.2-3.6 10.7h-11c.4-2.3 1-5.9 1.6-10.7zm2.4-54.2c0 1.5-1.2 2.7-2.6 2.7-1.5 0-2.7-1.2-2.7-2.6 0-.7.3-1.4.7-1.9.5-.5 1.2-.8 1.9-.8 1.5-.1 2.7 1.1 2.7 2.6z"/></svg>
