<svg xmlns="http://www.w3.org/2000/svg" width="83.383" height="90.999" viewBox="0 0 83.383 90.999">
    <g data-name="组 11866">
        <path data-name="路径 627" d="M13.914 0 6.957 6.957 0 0" transform="translate(59.426 74.818)" style="stroke-linecap:round;fill:none;stroke:#afafaf;stroke-linejoin:round;stroke-width:2px"/>
        <path data-name="路径 628" d="M32 16A16 16 0 1 1 16 0a16 16 0 0 1 16 16z" transform="translate(50.383 57.999)" style="fill:none;stroke:#afafaf;stroke-linejoin:round;stroke-width:2px"/>
        <path data-name="路径 629" d="M0 0v13.914" transform="translate(66.382 66.225)" style="stroke-linecap:round;fill:none;stroke:#afafaf;stroke-linejoin:round;stroke-width:2px"/>
        <path data-name="路径 630" d="M40.861 85.809H0V0h44.947l20.431 20.439V46.2" style="stroke-linecap:round;fill:none;stroke:#afafaf;stroke-linejoin:round;stroke-width:2px" transform="translate(1 1)"/>
        <path data-name="路径 631" d="M0 0v18.553h18.553" transform="translate(47.383 3.319)" style="stroke-linecap:round;fill:none;stroke:#afafaf;stroke-linejoin:round;stroke-width:2px"/>
    </g>
    <g data-name="组 11864">
        <path data-name="路径 8279" d="M11.48 0a11.48 11.48 0 1 0 11.035 14.611h2.532l2.087 2.089 2.087-2.087h2.087L33.4 16.7l2.087-2.087h3.131l3.131-3.131-3.135-3.133h-16.1A11.472 11.472 0 0 0 11.48 0z" transform="rotate(90 7.963 33.143)" style="stroke-linecap:round;fill:none;stroke:#afafaf;stroke-linejoin:round;stroke-width:2px"/>
    </g>
</svg>
