<svg xmlns="http://www.w3.org/2000/svg" width="337.376" height="65.24" viewBox="0 0 337.376 65.24">
    <g data-name="组 12061">
        <path data-name="路径 10831" d="M15.452 18.16a3.13 3.13 0 0 1-1.9-.544 1.891 1.891 0 0 1-.744-1.632 2.126 2.126 0 0 1 .672-1.672 3.168 3.168 0 0 1 2.144-.6h2.836v-.72a2.916 2.916 0 0 0-.192-1.176 1.181 1.181 0 0 0-.7-.616 4.381 4.381 0 0 0-1.472-.192 7.148 7.148 0 0 0-2.416.416v-.752a7.126 7.126 0 0 1 2.576-.416 3.484 3.484 0 0 1 2.32.64 2.623 2.623 0 0 1 .736 2.08V18h-.72l-.08-.944a3.127 3.127 0 0 1-1.256.84 5.322 5.322 0 0 1-1.804.264zm.224-.736a3.461 3.461 0 0 0 2.784-1.184v-1.824h-2.8a2.379 2.379 0 0 0-1.536.384 1.475 1.475 0 0 0-.448 1.184 1.221 1.221 0 0 0 .512 1.1 2.72 2.72 0 0 0 1.488.34zm6.208-7.008h.768l.08.928a4.631 4.631 0 0 1 1.368-.808 4.817 4.817 0 0 1 1.7-.28 2.79 2.79 0 0 1 2.056.656 2.867 2.867 0 0 1 .648 2.08V18h-.88v-4.992a2.919 2.919 0 0 0-.2-1.2 1.21 1.21 0 0 0-.672-.624 4.131 4.131 0 0 0-2.784.1 4.033 4.033 0 0 0-1.208.808V18h-.88zm18.992 7.744a3.467 3.467 0 0 1-2.752-.992 4.4 4.4 0 0 1-.864-2.96 4.348 4.348 0 0 1 .88-2.952 3.46 3.46 0 0 1 2.736-1 3.486 3.486 0 0 1 2.744 1 4.321 4.321 0 0 1 .888 2.952 4.369 4.369 0 0 1-.872 2.96 3.493 3.493 0 0 1-2.76.992zm0-.752A2.6 2.6 0 0 0 43 16.64a3.805 3.805 0 0 0 .632-2.432 3.74 3.74 0 0 0-.64-2.416 2.605 2.605 0 0 0-2.112-.768 2.605 2.605 0 0 0-2.112.768 3.74 3.74 0 0 0-.64 2.416 3.805 3.805 0 0 0 .632 2.432 2.6 2.6 0 0 0 2.116.768zm5.968-6.992h.736l.08.864a3.651 3.651 0 0 1 1.216-.776 4.285 4.285 0 0 1 1.52-.248q3.392 0 3.392 3.936a4.281 4.281 0 0 1-.9 2.992 3.306 3.306 0 0 1-2.552.976 5.039 5.039 0 0 1-1.424-.184 3.763 3.763 0 0 1-1.184-.6v4.08h-.88zm3.264 7.024a2.69 2.69 0 0 0 2.12-.784 3.645 3.645 0 0 0 .7-2.464 3.775 3.775 0 0 0-.64-2.424 2.569 2.569 0 0 0-2.1-.776 3.227 3.227 0 0 0-2.464 1.024v4.576a3.508 3.508 0 0 0 2.384.848zm9.616.72a4 4 0 0 1-2.984-.968 4.23 4.23 0 0 1-.94-3.032q0-3.9 3.5-3.9a3.066 3.066 0 0 1 2.352.84 3.1 3.1 0 0 1 .784 2.2v1.376h-5.76a3.826 3.826 0 0 0 .368 1.608 1.915 1.915 0 0 0 1 .88 4.967 4.967 0 0 0 1.848.28 5.428 5.428 0 0 0 2.048-.4v.72a5.823 5.823 0 0 1-2.216.396zm1.92-4.176v-.72a2.03 2.03 0 0 0-2.32-2.272 2.48 2.48 0 0 0-2.04.744 3.535 3.535 0 0 0-.6 2.248zm3.136-3.568h.768l.08.928A4.631 4.631 0 0 1 67 10.536a4.817 4.817 0 0 1 1.7-.28 2.79 2.79 0 0 1 2.056.656 2.867 2.867 0 0 1 .648 2.08V18h-.88v-4.992a2.919 2.919 0 0 0-.2-1.2 1.21 1.21 0 0 0-.672-.624 4.131 4.131 0 0 0-2.784.1 4.033 4.033 0 0 0-1.208.808V18h-.88zm8.88 3.1h5.952v.72H73.66zm10.512 4.64a7.444 7.444 0 0 1-2.336-.32v-.784a6.892 6.892 0 0 0 2.224.352 3.13 3.13 0 0 0 1.6-.3 1.117 1.117 0 0 0 .48-1.024 1.187 1.187 0 0 0-.184-.7 1.306 1.306 0 0 0-.536-.416q-.352-.16-1.1-.416l-.4-.144a12.565 12.565 0 0 1-1.288-.488 1.857 1.857 0 0 1-.712-.592 1.761 1.761 0 0 1-.288-1.064 1.756 1.756 0 0 1 .664-1.5 3.578 3.578 0 0 1 2.12-.5 7.142 7.142 0 0 1 2.016.272v.784a6.335 6.335 0 0 0-1.888-.288 3.256 3.256 0 0 0-1.584.28 1.006 1.006 0 0 0-.464.936 1.085 1.085 0 0 0 .192.68 1.383 1.383 0 0 0 .568.408q.376.16 1.224.432a10.271 10.271 0 0 1 1.48.568 2.026 2.026 0 0 1 .792.672 1.917 1.917 0 0 1 .272 1.08q-.004 2.076-2.852 2.076zm8.48 0a3.467 3.467 0 0 1-2.752-.992 4.4 4.4 0 0 1-.864-2.96 4.347 4.347 0 0 1 .88-2.952 4.254 4.254 0 0 1 5.48 0 4.321 4.321 0 0 1 .888 2.952 4.369 4.369 0 0 1-.872 2.96 3.493 3.493 0 0 1-2.76.996zm0-.752a2.6 2.6 0 0 0 2.12-.768 3.805 3.805 0 0 0 .632-2.432 3.74 3.74 0 0 0-.64-2.416 3.288 3.288 0 0 0-4.224 0 3.74 3.74 0 0 0-.64 2.416 3.805 3.805 0 0 0 .632 2.432 2.6 2.6 0 0 0 2.12.772zm8.656.752a2.676 2.676 0 0 1-2.064-.76 3.1 3.1 0 0 1-.7-2.184v-4.8h.88v4.832a2.241 2.241 0 0 0 .544 1.648 2.339 2.339 0 0 0 1.712.544 3.477 3.477 0 0 0 1.432-.3 3.887 3.887 0 0 0 1.176-.808v-5.92h.88V18h-.784l-.08-.928a4.507 4.507 0 0 1-1.328.808 4.571 4.571 0 0 1-1.668.28zm6.512-7.744h.768l.1 1.056a7.309 7.309 0 0 1 1.336-.72 9.439 9.439 0 0 1 1.512-.5v.72a10.524 10.524 0 0 0-1.544.52 6.528 6.528 0 0 0-1.288.68V18h-.88zm8.448 7.744q-3.76 0-3.76-3.952a3.929 3.929 0 0 1 1.032-2.952 3.932 3.932 0 0 1 2.856-1 5.688 5.688 0 0 1 1.144.1 4.023 4.023 0 0 1 .92.32v.72a4.447 4.447 0 0 0-1.92-.4q-3.168 0-3.168 3.216a3.529 3.529 0 0 0 .72 2.456 3.132 3.132 0 0 0 2.384.776 4.979 4.979 0 0 0 2-.416v.736a5.627 5.627 0 0 1-2.208.4zm8.144 0a4 4 0 0 1-2.984-.968 4.23 4.23 0 0 1-.936-3.032q0-3.9 3.5-3.9a3.066 3.066 0 0 1 2.352.84 3.1 3.1 0 0 1 .784 2.2v1.376h-5.76a3.826 3.826 0 0 0 .368 1.608 1.915 1.915 0 0 0 1 .88 4.967 4.967 0 0 0 1.848.28 5.428 5.428 0 0 0 2.048-.4v.72a5.823 5.823 0 0 1-2.22.4zm1.92-4.176v-.72a2.03 2.03 0 0 0-2.32-2.272 2.48 2.48 0 0 0-2.04.744 3.535 3.535 0 0 0-.6 2.248zm9.632-6.28h4.1a3.24 3.24 0 0 1 2.456.864 3.267 3.267 0 0 1 .824 2.352 3 3 0 0 1-.9 2.3 3.436 3.436 0 0 1-2.448.84h-3.152V18h-.88zm3.952 5.648a2.574 2.574 0 0 0 1.884-.648 2.394 2.394 0 0 0 .656-1.784 2.552 2.552 0 0 0-.624-1.856 2.457 2.457 0 0 0-1.84-.64h-3.152v4.928zm5.12 4.112a5.642 5.642 0 0 1 1.08-1.768 17.337 17.337 0 0 1 1.832-1.752 18.419 18.419 0 0 0 1.424-1.336 3.627 3.627 0 0 0 .7-1.032 2.981 2.981 0 0 0 .216-1.168q0-2.1-2.48-2.1a6.606 6.606 0 0 0-2.368.432v-.8a6.924 6.924 0 0 1 1.168-.288 7.708 7.708 0 0 1 1.264-.112 3.55 3.55 0 0 1 2.432.752 2.675 2.675 0 0 1 .848 2.112 3.28 3.28 0 0 1-.272 1.368 4.159 4.159 0 0 1-.736 1.1q-.464.5-1.28 1.24l-.368.336a19.6 19.6 0 0 0-1.536 1.456 4.71 4.71 0 0 0-.9 1.392h5.2V18h-6.224zM153.6 7.7h4.1a3.24 3.24 0 0 1 2.456.864 3.267 3.267 0 0 1 .824 2.352 3 3 0 0 1-.9 2.3 3.436 3.436 0 0 1-2.448.84h-3.152V18h-.88zm3.952 5.648a2.574 2.574 0 0 0 1.888-.648 2.394 2.394 0 0 0 .656-1.784 2.552 2.552 0 0 0-.624-1.856 2.457 2.457 0 0 0-1.84-.64h-3.152v4.928zM171.8 18.16a3.13 3.13 0 0 1-1.9-.544 1.891 1.891 0 0 1-.744-1.632 2.126 2.126 0 0 1 .672-1.672 3.168 3.168 0 0 1 2.144-.6h2.832v-.72a2.916 2.916 0 0 0-.192-1.176 1.181 1.181 0 0 0-.7-.616 4.381 4.381 0 0 0-1.472-.192 7.148 7.148 0 0 0-2.416.416v-.752a7.126 7.126 0 0 1 2.576-.416 3.484 3.484 0 0 1 2.32.64 2.623 2.623 0 0 1 .736 2.08V18h-.72l-.08-.944a3.127 3.127 0 0 1-1.256.84 5.322 5.322 0 0 1-1.8.264zm.224-.736a3.461 3.461 0 0 0 2.784-1.184v-1.824h-2.8a2.379 2.379 0 0 0-1.536.384 1.475 1.475 0 0 0-.448 1.184 1.221 1.221 0 0 0 .512 1.1 2.72 2.72 0 0 0 1.492.34zm6.208-7.008h.736l.08.864a3.651 3.651 0 0 1 1.216-.776 4.285 4.285 0 0 1 1.52-.248q3.392 0 3.392 3.936a4.281 4.281 0 0 1-.9 2.992 3.306 3.306 0 0 1-2.552.976 5.039 5.039 0 0 1-1.424-.184 3.763 3.763 0 0 1-1.184-.6v4.08h-.88zm3.268 7.024a2.69 2.69 0 0 0 2.12-.784 3.645 3.645 0 0 0 .7-2.464 3.775 3.775 0 0 0-.64-2.424 2.569 2.569 0 0 0-2.1-.776 3.227 3.227 0 0 0-2.464 1.024v4.576a3.508 3.508 0 0 0 2.384.848zm6.016-7.024h.736l.08.864a3.651 3.651 0 0 1 1.216-.776 4.285 4.285 0 0 1 1.52-.248q3.392 0 3.392 3.936a4.281 4.281 0 0 1-.9 2.992 3.306 3.306 0 0 1-2.56.976 5.039 5.039 0 0 1-1.424-.184 3.763 3.763 0 0 1-1.184-.6v4.08h-.88zm3.264 7.024a2.69 2.69 0 0 0 2.12-.784 3.645 3.645 0 0 0 .7-2.464 3.775 3.775 0 0 0-.64-2.424 2.569 2.569 0 0 0-2.1-.776 3.227 3.227 0 0 0-2.464 1.024v4.576a3.508 3.508 0 0 0 2.384.848zm7.424.72a1.384 1.384 0 0 1-1.048-.376 1.758 1.758 0 0 1-.36-1.24V7.216h.88v9.3a1.141 1.141 0 0 0 .16.7.617.617 0 0 0 .512.2 2.665 2.665 0 0 0 .7-.1v.736a2.722 2.722 0 0 1-.848.108zm2.976-10.672h1.008v.96h-1.008zm.112 3.664h-1.184l.1-.736h1.968V18h-.88zm6.992 7.008q-3.76 0-3.76-3.952a3.929 3.929 0 0 1 1.032-2.952 3.932 3.932 0 0 1 2.856-1 5.688 5.688 0 0 1 1.144.1 4.024 4.024 0 0 1 .92.32v.72a4.448 4.448 0 0 0-1.92-.4q-3.168 0-3.168 3.216a3.529 3.529 0 0 0 .72 2.456 3.132 3.132 0 0 0 2.384.776 4.979 4.979 0 0 0 2-.416v.736a5.627 5.627 0 0 1-2.208.396zm6.3 0a3.13 3.13 0 0 1-1.9-.544 1.891 1.891 0 0 1-.744-1.632 2.126 2.126 0 0 1 .672-1.672 3.168 3.168 0 0 1 2.144-.6h2.844v-.72a2.916 2.916 0 0 0-.192-1.176 1.181 1.181 0 0 0-.7-.616 4.381 4.381 0 0 0-1.472-.192 7.148 7.148 0 0 0-2.416.416v-.752a7.126 7.126 0 0 1 2.576-.416 3.484 3.484 0 0 1 2.32.64 2.623 2.623 0 0 1 .736 2.08V18h-.72l-.08-.944a3.127 3.127 0 0 1-1.256.84 5.322 5.322 0 0 1-1.808.264zm.224-.736a3.461 3.461 0 0 0 2.792-1.184v-1.824h-2.8a2.379 2.379 0 0 0-1.536.384 1.475 1.475 0 0 0-.448 1.184 1.221 1.221 0 0 0 .512 1.1 2.72 2.72 0 0 0 1.484.34zm8.448.736a2.065 2.065 0 0 1-1.552-.56 2.156 2.156 0 0 1-.544-1.568v-4.88h-1.18v-.736h1.184V8.432l.88-.288v2.272h2.192l-.048.736h-2.144V16a1.483 1.483 0 0 0 .352 1.088 1.533 1.533 0 0 0 1.12.352 2.922 2.922 0 0 0 .944-.176v.7a3.5 3.5 0 0 1-1.2.196zm4.128-10.672h1.016v.96h-1.008zm.112 3.664h-1.184l.1-.736h1.968V18h-.88zm6.848 7.008a3.467 3.467 0 0 1-2.752-.992 4.4 4.4 0 0 1-.864-2.96 4.348 4.348 0 0 1 .88-2.952 4.254 4.254 0 0 1 5.48 0 4.321 4.321 0 0 1 .888 2.952 4.369 4.369 0 0 1-.872 2.96 3.493 3.493 0 0 1-2.756.992zm0-.752a2.6 2.6 0 0 0 2.12-.768 3.805 3.805 0 0 0 .632-2.432 3.74 3.74 0 0 0-.64-2.416 3.288 3.288 0 0 0-4.224 0 3.74 3.74 0 0 0-.64 2.416 3.805 3.805 0 0 0 .632 2.432 2.6 2.6 0 0 0 2.124.768zm5.968-6.992h.768l.08.928a4.631 4.631 0 0 1 1.368-.808 4.817 4.817 0 0 1 1.7-.28 2.79 2.79 0 0 1 2.056.656 2.867 2.867 0 0 1 .648 2.08V18h-.88v-4.992a2.919 2.919 0 0 0-.2-1.2 1.21 1.21 0 0 0-.672-.624 4.131 4.131 0 0 0-2.784.1 4.033 4.033 0 0 0-1.208.808V18h-.88zm16.608-2.928h1.008v.96h-1.008zm.112 3.664h-1.184l.1-.736h1.968V18h-.88zm3.552-.736h.768l.08.928a4.631 4.631 0 0 1 1.368-.808 4.817 4.817 0 0 1 1.7-.28 2.79 2.79 0 0 1 2.056.656 2.867 2.867 0 0 1 .648 2.08V18h-.88v-4.992a2.919 2.919 0 0 0-.2-1.2 1.21 1.21 0 0 0-.672-.624 4.131 4.131 0 0 0-2.784.1 4.033 4.033 0 0 0-1.208.808V18h-.88zm9.728.736h-1.168v-.736h1.168v-1.28a2.157 2.157 0 0 1 .576-1.608 2.249 2.249 0 0 1 1.648-.568 3.43 3.43 0 0 1 1.232.208v.7a2.994 2.994 0 0 0-1.008-.176 1.771 1.771 0 0 0-1.224.328 1.467 1.467 0 0 0-.344 1.1v1.3h2.112l-.048.736H271.2V18h-.88zm4.752-.736h.768l.1 1.056a7.31 7.31 0 0 1 1.336-.72 9.44 9.44 0 0 1 1.512-.5v.72a10.523 10.523 0 0 0-1.544.52 6.529 6.529 0 0 0-1.288.68V18h-.88zm7.088 7.744a3.13 3.13 0 0 1-1.9-.544 1.891 1.891 0 0 1-.744-1.632 2.126 2.126 0 0 1 .672-1.672 3.168 3.168 0 0 1 2.144-.6h2.832v-.72a2.917 2.917 0 0 0-.192-1.176 1.181 1.181 0 0 0-.7-.616 4.381 4.381 0 0 0-1.472-.192 7.148 7.148 0 0 0-2.416.416v-.752a7.126 7.126 0 0 1 2.576-.416 3.485 3.485 0 0 1 2.32.64 2.623 2.623 0 0 1 .736 2.08V18h-.72l-.08-.944a3.127 3.127 0 0 1-1.256.84 5.322 5.322 0 0 1-1.796.264zm.224-.736a3.461 3.461 0 0 0 2.784-1.184v-1.824h-2.8a2.379 2.379 0 0 0-1.536.384 1.475 1.475 0 0 0-.448 1.184 1.221 1.221 0 0 0 .512 1.1 2.72 2.72 0 0 0 1.492.34zm8.432.736a7.444 7.444 0 0 1-2.336-.32v-.784a6.892 6.892 0 0 0 2.224.352 3.129 3.129 0 0 0 1.6-.3 1.117 1.117 0 0 0 .48-1.024 1.187 1.187 0 0 0-.184-.7 1.306 1.306 0 0 0-.536-.416q-.352-.16-1.1-.416l-.4-.144a12.561 12.561 0 0 1-1.288-.488 1.856 1.856 0 0 1-.712-.592 1.761 1.761 0 0 1-.288-1.064 1.756 1.756 0 0 1 .664-1.5 3.578 3.578 0 0 1 2.12-.5 7.141 7.141 0 0 1 2.016.272v.784a6.335 6.335 0 0 0-1.888-.288 3.256 3.256 0 0 0-1.584.28 1.006 1.006 0 0 0-.464.936 1.085 1.085 0 0 0 .192.68 1.383 1.383 0 0 0 .568.408q.376.16 1.224.432a10.273 10.273 0 0 1 1.48.568 2.026 2.026 0 0 1 .792.672 1.917 1.917 0 0 1 .272 1.08q0 2.072-2.848 2.072zm7.824 0a2.065 2.065 0 0 1-1.552-.56 2.156 2.156 0 0 1-.544-1.568v-4.88h-1.184v-.736h1.184V8.432l.88-.288v2.272h2.192l-.048.736h-2.14V16a1.483 1.483 0 0 0 .352 1.088 1.533 1.533 0 0 0 1.12.352 2.922 2.922 0 0 0 .944-.176v.7a3.5 3.5 0 0 1-1.2.196zm3.216-7.744h.768l.1 1.056a7.31 7.31 0 0 1 1.336-.72 9.44 9.44 0 0 1 1.512-.5v.72a10.523 10.523 0 0 0-1.544.52 6.529 6.529 0 0 0-1.288.68V18h-.88zm8.016 7.744a2.676 2.676 0 0 1-2.064-.76 3.1 3.1 0 0 1-.7-2.184v-4.8h.88v4.832a2.241 2.241 0 0 0 .544 1.648 2.339 2.339 0 0 0 1.712.544 3.477 3.477 0 0 0 1.432-.3 3.888 3.888 0 0 0 1.176-.808v-5.92h.88V18h-.784l-.08-.928a4.507 4.507 0 0 1-1.328.808 4.571 4.571 0 0 1-1.664.28zm9.952 0q-3.76 0-3.76-3.952a3.929 3.929 0 0 1 1.032-2.952 3.932 3.932 0 0 1 2.856-1 5.687 5.687 0 0 1 1.144.1 4.023 4.023 0 0 1 .92.32v.72a4.448 4.448 0 0 0-1.92-.4q-3.168 0-3.168 3.216a3.528 3.528 0 0 0 .72 2.456 3.132 3.132 0 0 0 2.384.776 4.979 4.979 0 0 0 2-.416v.736a5.627 5.627 0 0 1-2.204.396zm6.784 0a2.065 2.065 0 0 1-1.552-.56 2.156 2.156 0 0 1-.544-1.568v-4.88h-1.184v-.736h1.184V8.432l.88-.288v2.272h2.192l-.048.736h-2.144V16a1.483 1.483 0 0 0 .352 1.088 1.533 1.533 0 0 0 1.12.352 2.922 2.922 0 0 0 .944-.176v.7a3.5 3.5 0 0 1-1.2.196zm5.5 0a2.676 2.676 0 0 1-2.064-.76 3.1 3.1 0 0 1-.7-2.184v-4.8h.88v4.832a2.241 2.241 0 0 0 .544 1.648 2.339 2.339 0 0 0 1.712.544 3.477 3.477 0 0 0 1.432-.3 3.888 3.888 0 0 0 1.176-.808v-5.92h.88V18h-.784l-.08-.928a4.507 4.507 0 0 1-1.328.808 4.571 4.571 0 0 1-1.66.28zm6.512-7.744h.768l.1 1.056a7.31 7.31 0 0 1 1.336-.72 9.44 9.44 0 0 1 1.512-.5v.72a10.523 10.523 0 0 0-1.544.52 6.529 6.529 0 0 0-1.288.68V18h-.88zm8.848 7.744a4 4 0 0 1-2.984-.968 4.23 4.23 0 0 1-.936-3.032q0-3.9 3.5-3.9a3.066 3.066 0 0 1 2.352.84 3.1 3.1 0 0 1 .784 2.2v1.376h-5.76a3.826 3.826 0 0 0 .368 1.608 1.915 1.915 0 0 0 1 .88 4.967 4.967 0 0 0 1.848.28 5.428 5.428 0 0 0 2.048-.4v.72a5.823 5.823 0 0 1-2.212.396zm1.92-4.176v-.72a2.03 2.03 0 0 0-2.32-2.272 2.48 2.48 0 0 0-2.04.744 3.535 3.535 0 0 0-.6 2.248zM65.46 38.16a2.065 2.065 0 0 1-1.552-.56 2.156 2.156 0 0 1-.544-1.568v-4.88H62.18v-.736h1.184v-1.984l.88-.288v2.272h2.192l-.048.736h-2.144V36a1.483 1.483 0 0 0 .352 1.088 1.533 1.533 0 0 0 1.12.352 2.922 2.922 0 0 0 .944-.176v.7a3.5 3.5 0 0 1-1.2.196zm6.112 0a3.467 3.467 0 0 1-2.752-.992 4.4 4.4 0 0 1-.864-2.96 4.347 4.347 0 0 1 .88-2.952 4.254 4.254 0 0 1 5.48 0 4.321 4.321 0 0 1 .888 2.952 4.369 4.369 0 0 1-.872 2.96 3.493 3.493 0 0 1-2.76.992zm0-.752a2.6 2.6 0 0 0 2.12-.768 3.805 3.805 0 0 0 .632-2.432 3.74 3.74 0 0 0-.64-2.416 3.288 3.288 0 0 0-4.224 0 3.74 3.74 0 0 0-.64 2.416 3.805 3.805 0 0 0 .632 2.432 2.6 2.6 0 0 0 2.12.768zm15.76.752a3.467 3.467 0 0 1-2.752-.992 4.4 4.4 0 0 1-.864-2.96 4.347 4.347 0 0 1 .88-2.952 4.254 4.254 0 0 1 5.48 0 4.321 4.321 0 0 1 .888 2.952 4.369 4.369 0 0 1-.872 2.96 3.493 3.493 0 0 1-2.76.992zm0-.752a2.6 2.6 0 0 0 2.12-.768 3.805 3.805 0 0 0 .632-2.432 3.74 3.74 0 0 0-.64-2.416 3.288 3.288 0 0 0-4.224 0 3.74 3.74 0 0 0-.64 2.416 3.805 3.805 0 0 0 .632 2.432 2.6 2.6 0 0 0 2.12.768zm5.936-6.256H92.1v-.736h1.168v-1.28a2.157 2.157 0 0 1 .576-1.608 2.249 2.249 0 0 1 1.648-.568 3.43 3.43 0 0 1 1.232.208v.7a2.994 2.994 0 0 0-1.008-.176 1.771 1.771 0 0 0-1.224.328 1.467 1.467 0 0 0-.344 1.1v1.3h2.112l-.048.736h-2.064V38h-.88zm4.96 0H97.06v-.736h1.168v-1.28a2.157 2.157 0 0 1 .576-1.608 2.249 2.249 0 0 1 1.648-.568 3.43 3.43 0 0 1 1.232.208v.7a2.994 2.994 0 0 0-1.008-.176 1.771 1.771 0 0 0-1.224.328 1.467 1.467 0 0 0-.344 1.1v1.3h2.112l-.048.736h-2.064V38h-.88zm8.112 7.008a4 4 0 0 1-2.984-.968 4.23 4.23 0 0 1-.936-3.032q0-3.9 3.5-3.9a2.821 2.821 0 0 1 3.136 3.04v1.376H103.3a3.826 3.826 0 0 0 .368 1.608 1.915 1.915 0 0 0 1 .88 4.967 4.967 0 0 0 1.848.28 5.428 5.428 0 0 0 2.048-.4v.72a5.823 5.823 0 0 1-2.224.396zm1.92-4.176v-.72a2.03 2.03 0 0 0-2.32-2.272 2.48 2.48 0 0 0-2.04.744 3.535 3.535 0 0 0-.6 2.248zm3.136-3.568h.768l.1 1.056a7.31 7.31 0 0 1 1.336-.72 9.439 9.439 0 0 1 1.512-.5v.72a10.524 10.524 0 0 0-1.544.52 6.528 6.528 0 0 0-1.288.68V38h-.88zm14.864 7.744a2.065 2.065 0 0 1-1.552-.56 2.156 2.156 0 0 1-.544-1.568v-4.88h-1.184v-.736h1.184v-1.984l.88-.288v2.272h2.192l-.048.736h-2.144V36a1.483 1.483 0 0 0 .352 1.088 1.533 1.533 0 0 0 1.12.352 2.922 2.922 0 0 0 .944-.176v.7a3.5 3.5 0 0 1-1.2.196zm3.216-10.944h.88v4.112a4.627 4.627 0 0 1 1.344-.792 4.751 4.751 0 0 1 1.7-.28 2.774 2.774 0 0 1 2.048.664 2.849 2.849 0 0 1 .656 2.072V38h-.88v-4.992a2.088 2.088 0 0 0-.48-1.568 2.458 2.458 0 0 0-1.68-.448 3.694 3.694 0 0 0-1.464.3 4.041 4.041 0 0 0-1.24.816V38h-.88zm12.8 10.944a4 4 0 0 1-2.984-.968 4.23 4.23 0 0 1-.936-3.032q0-3.9 3.5-3.9A2.821 2.821 0 0 1 145 33.3v1.376h-5.76a3.825 3.825 0 0 0 .368 1.608 1.915 1.915 0 0 0 1 .88 4.967 4.967 0 0 0 1.848.28 5.428 5.428 0 0 0 2.048-.4v.72a5.823 5.823 0 0 1-2.228.396zm1.92-4.176v-.72a2.03 2.03 0 0 0-2.32-2.272 2.48 2.48 0 0 0-2.04.744 3.535 3.535 0 0 0-.6 2.248zm10.544-6.5h1.008v.96h-1.008zm.112 3.664h-1.184l.1-.736h1.968V38h-.88zm3.552-.736h.768l.08.928a4.631 4.631 0 0 1 1.368-.808 4.817 4.817 0 0 1 1.7-.28 2.79 2.79 0 0 1 2.056.656 2.867 2.867 0 0 1 .648 2.08V38h-.88v-4.992a2.919 2.919 0 0 0-.2-1.2 1.21 1.21 0 0 0-.672-.624 4.131 4.131 0 0 0-2.784.1 4.033 4.033 0 0 0-1.208.808V38h-.88zm11.84 7.744a2.065 2.065 0 0 1-1.552-.56 2.156 2.156 0 0 1-.544-1.568v-4.88h-1.184v-.736h1.184v-1.98l.88-.288v2.272h2.192l-.048.736h-2.144V36a1.483 1.483 0 0 0 .352 1.088 1.533 1.533 0 0 0 1.12.352 2.922 2.922 0 0 0 .944-.176v.7a3.5 3.5 0 0 1-1.2.196zm6.816 0a4 4 0 0 1-2.984-.968 4.23 4.23 0 0 1-.936-3.032q0-3.9 3.5-3.9a2.821 2.821 0 0 1 3.136 3.04v1.376h-5.76a3.825 3.825 0 0 0 .368 1.608 1.915 1.915 0 0 0 1 .88 4.967 4.967 0 0 0 1.848.28 5.428 5.428 0 0 0 2.048-.4v.72a5.823 5.823 0 0 1-2.22.4zm1.92-4.176v-.72a2.03 2.03 0 0 0-2.32-2.272 2.48 2.48 0 0 0-2.04.744 3.535 3.535 0 0 0-.6 2.248zm3.136-3.568h.768l.1 1.056a7.31 7.31 0 0 1 1.336-.72 9.439 9.439 0 0 1 1.512-.5v.72a10.525 10.525 0 0 0-1.544.52 6.528 6.528 0 0 0-1.288.68V38h-.88zm5.728 0h.768l.08.928a4.631 4.631 0 0 1 1.368-.808 4.817 4.817 0 0 1 1.7-.28 2.79 2.79 0 0 1 2.056.656 2.867 2.867 0 0 1 .648 2.08V38h-.88v-4.992a2.919 2.919 0 0 0-.2-1.2 1.21 1.21 0 0 0-.672-.624 4.131 4.131 0 0 0-2.784.1 4.033 4.033 0 0 0-1.208.808V38h-.88zm12.8 7.744a4 4 0 0 1-2.984-.968 4.23 4.23 0 0 1-.936-3.032q0-3.9 3.5-3.9a2.821 2.821 0 0 1 3.136 3.04v1.376h-5.76a3.825 3.825 0 0 0 .368 1.608 1.915 1.915 0 0 0 1 .88 4.967 4.967 0 0 0 1.848.28 5.428 5.428 0 0 0 2.048-.4v.72a5.823 5.823 0 0 1-2.22.4zm1.92-4.176v-.72a2.03 2.03 0 0 0-2.32-2.272 2.48 2.48 0 0 0-2.04.744 3.535 3.535 0 0 0-.6 2.248zm5.776 4.176a2.065 2.065 0 0 1-1.552-.56 2.156 2.156 0 0 1-.544-1.568v-4.88h-1.184v-.736h1.184v-1.98l.88-.288v2.272h2.192l-.048.736h-2.144V36a1.483 1.483 0 0 0 .352 1.088 1.533 1.533 0 0 0 1.12.352 2.922 2.922 0 0 0 .944-.176v.7a3.5 3.5 0 0 1-1.2.196zm12.032 0a3.13 3.13 0 0 1-1.9-.544 1.891 1.891 0 0 1-.744-1.632 2.126 2.126 0 0 1 .672-1.672 3.168 3.168 0 0 1 2.144-.6h2.832v-.72a2.916 2.916 0 0 0-.192-1.176 1.181 1.181 0 0 0-.7-.616 4.381 4.381 0 0 0-1.472-.192 7.148 7.148 0 0 0-2.416.416v-.752a7.126 7.126 0 0 1 2.576-.416 3.484 3.484 0 0 1 2.32.64 2.623 2.623 0 0 1 .736 2.08V38h-.72l-.08-.944a3.127 3.127 0 0 1-1.256.84 5.322 5.322 0 0 1-1.8.264zm.224-.736a3.461 3.461 0 0 0 2.784-1.184v-1.82h-2.8a2.379 2.379 0 0 0-1.536.384 1.475 1.475 0 0 0-.448 1.184 1.221 1.221 0 0 0 .512 1.1 2.72 2.72 0 0 0 1.492.34zm7.616.736a1.384 1.384 0 0 1-1.048-.376 1.758 1.758 0 0 1-.36-1.24v-9.324h.88v9.3a1.141 1.141 0 0 0 .16.7.617.617 0 0 0 .512.2 2.665 2.665 0 0 0 .7-.1v.736a2.722 2.722 0 0 1-.844.108zm5.024 0a2.065 2.065 0 0 1-1.552-.56 2.156 2.156 0 0 1-.544-1.568v-4.88h-1.184v-.736h1.184v-1.98l.88-.288v2.272h2.192l-.048.736h-2.144V36a1.483 1.483 0 0 0 .352 1.088 1.533 1.533 0 0 0 1.12.352 2.922 2.922 0 0 0 .944-.176v.7a3.5 3.5 0 0 1-1.2.196zm6.816 0a4 4 0 0 1-2.984-.968 4.23 4.23 0 0 1-.936-3.032q0-3.9 3.5-3.9a2.821 2.821 0 0 1 3.136 3.04v1.376h-5.76a3.825 3.825 0 0 0 .368 1.608 1.915 1.915 0 0 0 1 .88 4.967 4.967 0 0 0 1.848.28 5.428 5.428 0 0 0 2.048-.4v.72a5.823 5.823 0 0 1-2.22.4zm1.92-4.176v-.72a2.03 2.03 0 0 0-2.32-2.272 2.48 2.48 0 0 0-2.04.744 3.535 3.535 0 0 0-.6 2.248zm3.136-3.568h.768l.1 1.056a7.31 7.31 0 0 1 1.336-.72 9.439 9.439 0 0 1 1.512-.5v.72a10.525 10.525 0 0 0-1.544.52 6.528 6.528 0 0 0-1.288.68V38h-.88zm5.728 0h.768l.08.928a4.631 4.631 0 0 1 1.368-.808 4.817 4.817 0 0 1 1.7-.28 2.79 2.79 0 0 1 2.056.656 2.867 2.867 0 0 1 .648 2.08V38h-.88v-4.992a2.919 2.919 0 0 0-.2-1.2 1.21 1.21 0 0 0-.672-.624 4.131 4.131 0 0 0-2.784.1 4.033 4.033 0 0 0-1.208.808V38h-.88zm11.28 7.744a3.13 3.13 0 0 1-1.9-.544 1.891 1.891 0 0 1-.744-1.632 2.126 2.126 0 0 1 .672-1.672 3.168 3.168 0 0 1 2.144-.6h2.832v-.72a2.916 2.916 0 0 0-.192-1.176 1.181 1.181 0 0 0-.7-.616 4.381 4.381 0 0 0-1.472-.192 7.148 7.148 0 0 0-2.416.416v-.752a7.126 7.126 0 0 1 2.576-.416 3.485 3.485 0 0 1 2.32.64 2.623 2.623 0 0 1 .736 2.08V38h-.72l-.08-.944a3.127 3.127 0 0 1-1.256.84 5.322 5.322 0 0 1-1.8.264zm.224-.736a3.461 3.461 0 0 0 2.784-1.184v-1.82h-2.8a2.379 2.379 0 0 0-1.536.384 1.475 1.475 0 0 0-.448 1.184 1.221 1.221 0 0 0 .512 1.1 2.72 2.72 0 0 0 1.488.34zm8.448.736a2.065 2.065 0 0 1-1.552-.56 2.156 2.156 0 0 1-.544-1.568v-4.88h-1.184v-.736h1.184v-1.98l.88-.288v2.272h2.192l-.048.736h-2.144V36a1.483 1.483 0 0 0 .352 1.088 1.533 1.533 0 0 0 1.12.352 2.922 2.922 0 0 0 .944-.176v.7a3.5 3.5 0 0 1-1.2.196zm4.128-10.672h1.008v.96h-1.008zm.112 3.664h-1.184l.1-.736h1.968V38h-.88zm3.232-.736h.912l2.576 6.848 2.592-6.848h.9L282.276 38h-1.056zm12.112 7.744a4 4 0 0 1-2.984-.968 4.23 4.23 0 0 1-.936-3.032q0-3.9 3.5-3.9a2.821 2.821 0 0 1 3.136 3.04v1.376h-5.76a3.826 3.826 0 0 0 .368 1.608 1.915 1.915 0 0 0 1 .88 4.967 4.967 0 0 0 1.848.28 5.428 5.428 0 0 0 2.048-.4v.72a5.823 5.823 0 0 1-2.22.4zm1.92-4.176v-.72a2.03 2.03 0 0 0-2.32-2.272 2.48 2.48 0 0 0-2.04.744 3.535 3.535 0 0 0-.6 2.248zm5.36 4.176a7.444 7.444 0 0 1-2.336-.32v-.784a6.892 6.892 0 0 0 2.224.352 3.129 3.129 0 0 0 1.6-.3 1.117 1.117 0 0 0 .48-1.024 1.187 1.187 0 0 0-.184-.7 1.306 1.306 0 0 0-.536-.416q-.352-.16-1.1-.416l-.4-.144a12.561 12.561 0 0 1-1.288-.488 1.856 1.856 0 0 1-.712-.592 2.064 2.064 0 0 1 .376-2.568 3.578 3.578 0 0 1 2.12-.5 7.141 7.141 0 0 1 2.016.272v.784a6.335 6.335 0 0 0-1.888-.288 3.256 3.256 0 0 0-1.584.28 1.006 1.006 0 0 0-.464.936 1.085 1.085 0 0 0 .192.68 1.383 1.383 0 0 0 .568.408q.376.16 1.224.432a10.274 10.274 0 0 1 1.48.568 2.026 2.026 0 0 1 .792.672 1.917 1.917 0 0 1 .272 1.08q-.004 2.08-2.852 2.08z" transform="translate(-12.812 27.08)" style="fill:#ff931e"/>
        <path data-name="路径 10830" d="M-52.19-12.88h5.72a4.035 4.035 0 0 1 2.69.78 2.74 2.74 0 0 1 .91 2.2 5.82 5.82 0 0 1-.12 1.14 4.933 4.933 0 0 1-1.17 2.35 4.514 4.514 0 0 1-2.25 1.31 1.521 1.521 0 0 1 .41.53 4.525 4.525 0 0 1 .25.83l.84 3.74h-2.24l-.82-3.6a1.237 1.237 0 0 0-.4-.75 1.694 1.694 0 0 0-.98-.21h-2.42L-52.73 0h-2.18zm3.96 6.56a3.228 3.228 0 0 0 2.04-.58 3.109 3.109 0 0 0 1.02-1.86 4.416 4.416 0 0 0 .12-.94 1.321 1.321 0 0 0-.47-1.12 2.462 2.462 0 0 0-1.49-.36h-3.36l-1.02 4.86zM-39.65.2a3.028 3.028 0 0 1-2.09-.67 2.479 2.479 0 0 1-.75-1.95 5.562 5.562 0 0 1 .12-1.08l1.26-5.98h2.18l-1.26 5.98a4.3 4.3 0 0 0-.1.8 1.09 1.09 0 0 0 .42.98 2.525 2.525 0 0 0 1.36.28 4.132 4.132 0 0 0 1.52-.29 4.869 4.869 0 0 0 1.36-.81l1.48-6.94h2.16l-2 9.48h-1.98l.1-.98A6.6 6.6 0 0 1-39.65.2zm10.6-9.68h2l-.1 1a6.3 6.3 0 0 1 3.58-1.2 2.8 2.8 0 0 1 1.46.31 1.829 1.829 0 0 1 .74.93 7.24 7.24 0 0 1 1.79-.92 6.267 6.267 0 0 1 2.05-.32 2.933 2.933 0 0 1 1.95.57 2.146 2.146 0 0 1 .67 1.73 6.584 6.584 0 0 1-.14 1.12L-16.37 0h-2.14l1.28-6.04a4.908 4.908 0 0 0 .1-.82 1.016 1.016 0 0 0-.38-.89 2.237 2.237 0 0 0-1.26-.27 3.809 3.809 0 0 0-1.36.25 3.793 3.793 0 0 0-1.18.71 4.977 4.977 0 0 1-.12.98L-22.71 0h-2.02l1.26-6.02a4.027 4.027 0 0 0 .12-.88 1.035 1.035 0 0 0-.33-.85 1.691 1.691 0 0 0-1.07-.27 3.348 3.348 0 0 0-1.36.31 6.353 6.353 0 0 0-1.34.81L-28.91 0h-2.14zM-9.69.2a9.539 9.539 0 0 1-3.88-.64l.42-1.92a9.287 9.287 0 0 0 3.66.72 5.97 5.97 0 0 0 2.43-.38 1.882 1.882 0 0 0 1.03-1.42 2.286 2.286 0 0 0 .06-.46 1.089 1.089 0 0 0-.3-.79 2.565 2.565 0 0 0-.91-.55q-.61-.24-1.77-.56a5.886 5.886 0 0 1-2.34-1.1 2.174 2.174 0 0 1-.74-1.7 4.483 4.483 0 0 1 .1-.86q.76-3.62 5.72-3.62a12.887 12.887 0 0 1 2.01.15 7.917 7.917 0 0 1 1.53.37l-.4 1.92a8.414 8.414 0 0 0-3.24-.58 5.687 5.687 0 0 0-2.37.4 1.83 1.83 0 0 0-1.05 1.36 1.788 1.788 0 0 0-.04.42.989.989 0 0 0 .26.7 2.308 2.308 0 0 0 .83.51 14.209 14.209 0 0 0 1.65.51A5.843 5.843 0 0 1-4.5-6.13a2.393 2.393 0 0 1 .77 1.81 5.046 5.046 0 0 1-.1.88A4.171 4.171 0 0 1-5.59-.73a7.373 7.373 0 0 1-4.1.93zm9.66 3.32q-.54 0-1.31-.06a8.945 8.945 0 0 1-1.13-.14l.38-1.74a5.431 5.431 0 0 0 .98.19 9.409 9.409 0 0 0 1.08.07 6.438 6.438 0 0 0 2.77-.52A2.214 2.214 0 0 0 4.05-.3l.14-.68A6.569 6.569 0 0 1 .43.2a2.952 2.952 0 0 1-2.08-.7 2.557 2.557 0 0 1-.76-1.98 4.71 4.71 0 0 1 .12-1.02l1.26-5.98h2.18L-.11-3.5a4.3 4.3 0 0 0-.1.8 1.11 1.11 0 0 0 .41.96 2.381 2.381 0 0 0 1.37.3 4.132 4.132 0 0 0 1.52-.29 4.869 4.869 0 0 0 1.36-.81l1.48-6.94h2.16L6.21-.64a4.817 4.817 0 0 1-1.95 3.01A7.123 7.123 0 0 1-.03 3.52zM12.53.2a12.179 12.179 0 0 1-1.82-.13 6.682 6.682 0 0 1-1.42-.35l.4-1.84a6.248 6.248 0 0 0 1.38.4 8.814 8.814 0 0 0 1.56.14 4.895 4.895 0 0 0 1.66-.2 1.044 1.044 0 0 0 .64-.78.841.841 0 0 0 .02-.2.687.687 0 0 0-.37-.62 8.941 8.941 0 0 0-1.39-.58l-.54-.18a5.388 5.388 0 0 1-1.69-.87 1.63 1.63 0 0 1-.55-1.31 4.908 4.908 0 0 1 .08-.64A3.1 3.1 0 0 1 11.85-9a5.966 5.966 0 0 1 3.18-.68 8.053 8.053 0 0 1 2.74.42l-.38 1.82a5.2 5.2 0 0 0-1.15-.34 6.886 6.886 0 0 0-1.25-.12 5.175 5.175 0 0 0-1.63.19.947.947 0 0 0-.65.71.841.841 0 0 0-.02.2.609.609 0 0 0 .21.47 2.209 2.209 0 0 0 .7.37q.49.18 1.13.38a5.81 5.81 0 0 1 1.91.93 1.64 1.64 0 0 1 .57 1.31 3.717 3.717 0 0 1-.1.76 3.088 3.088 0 0 1-1.38 2.11 6.152 6.152 0 0 1-3.2.67zm10.14 0a2.731 2.731 0 0 1-1.86-.55 1.988 1.988 0 0 1-.62-1.57 5.11 5.11 0 0 1 .1-.9l1.06-4.96h-1.4l.36-1.7h1.4l.46-2.18 2.3-.66-.6 2.84h2.52l-.5 1.7h-2.38l-1.02 4.84a2.553 2.553 0 0 0-.08.62.718.718 0 0 0 .31.68 2.283 2.283 0 0 0 1.07.18 3.844 3.844 0 0 0 1.18-.2l-.32 1.54a5.765 5.765 0 0 1-1.98.32zm8.84 0a4.978 4.978 0 0 1-3.16-.9 3.184 3.184 0 0 1-1.14-2.66 7.26 7.26 0 0 1 .16-1.4 6.627 6.627 0 0 1 1.89-3.65 5.465 5.465 0 0 1 3.83-1.27 3.777 3.777 0 0 1 2.67.85 2.934 2.934 0 0 1 .91 2.25 5.257 5.257 0 0 1-.1.94l-.36 1.76h-6.94a4.552 4.552 0 0 0-.02.48 1.645 1.645 0 0 0 .68 1.51 4.742 4.742 0 0 0 2.38.43 8.492 8.492 0 0 0 1.5-.14 8.9 8.9 0 0 0 1.4-.36l-.34 1.6a8.946 8.946 0 0 1-3.36.56zm3.08-5.5.14-.66a2.8 2.8 0 0 0 .08-.68 1.225 1.225 0 0 0-.47-1.05 2.6 2.6 0 0 0-1.53-.35 3.276 3.276 0 0 0-2.21.64 3.707 3.707 0 0 0-1.03 2.1zm5.32-4.18h2l-.1 1a6.3 6.3 0 0 1 3.58-1.2 2.8 2.8 0 0 1 1.46.31 1.829 1.829 0 0 1 .74.93 7.24 7.24 0 0 1 1.79-.92 6.267 6.267 0 0 1 2.05-.32 2.933 2.933 0 0 1 1.95.57 2.146 2.146 0 0 1 .67 1.73 6.584 6.584 0 0 1-.14 1.12L52.59 0h-2.14l1.28-6.04a4.908 4.908 0 0 0 .1-.82 1.016 1.016 0 0 0-.38-.89 2.237 2.237 0 0 0-1.26-.27 3.809 3.809 0 0 0-1.36.25 3.793 3.793 0 0 0-1.18.71 4.977 4.977 0 0 1-.12.98L46.25 0h-2.02l1.26-6.02a4.027 4.027 0 0 0 .12-.88 1.035 1.035 0 0 0-.33-.85 1.691 1.691 0 0 0-1.07-.27 3.348 3.348 0 0 0-1.36.31 6.353 6.353 0 0 0-1.34.81L40.05 0h-2.14z" transform="translate(168.188 13.08)" style="fill:#ff931e"/>
    </g>
</svg>
