<svg xmlns="http://www.w3.org/2000/svg" width="88" height="80" viewBox="0 0 88 80">
    <path data-name="路径 10453" d="M86.233 63.2H76.5a7.1 7.1 0 0 0 .935-3.537V8.069a7.111 7.111 0 0 0-2.078-5.006A7.014 7.014 0 0 0 70.366 1h-42.2a7.076 7.076 0 0 0-7.032 7.1v1.752h-5.266a7.077 7.077 0 0 0-4.99 2.065A7.2 7.2 0 0 0 8.8 16.959v51.565a6.917 6.917 0 0 0 .935 3.537H1.767a1.785 1.785 0 0 0 0 3.569H46.08l4.3 4.342a3.51 3.51 0 0 0 4.955 0 3.631 3.631 0 0 0 .555-4.342h9.25a1.786 1.786 0 0 0 1.248-3.045 1.693 1.693 0 0 0-1.248-.525h-.94a7.1 7.1 0 0 0 .935-3.536v-1.785h21.1a1.751 1.751 0 0 0 1.248-.525A1.729 1.729 0 0 0 88 64.952a1.786 1.786 0 0 0-.519-1.26 1.745 1.745 0 0 0-1.248-.489zM61.6 68.525a3.561 3.561 0 0 1-1 2.52 3.524 3.524 0 0 1-2.5 1.055h-5.577l-5.89-5.951a3.415 3.415 0 0 0-3.4-.911l-1.663-1.679a12.511 12.511 0 0 0-1.554-16.669 12.23 12.23 0 0 0-16.56-.034 12.552 12.552 0 0 0-1.628 16.663 12.256 12.256 0 0 0 8.107 4.9 12.115 12.115 0 0 0 9.147-2.345l1.663 1.679a3.645 3.645 0 0 0 .9 3.431l.9.911H15.833a3.539 3.539 0 0 1-3.5-3.571V16.89a3.426 3.426 0 0 1 3.4-3.466H58.2a3.426 3.426 0 0 1 3.4 3.466v51.635zM37.9 62.4a8.763 8.763 0 0 1-14.725-3.991 8.981 8.981 0 0 1 2.287-8.577 8.739 8.739 0 0 1 12.438 0 8.9 8.9 0 0 1 0 12.568zm36.032-2.73a3.56 3.56 0 0 1-3.5 3.57h-5.3V16.96a7.112 7.112 0 0 0-2.08-5.006 7.013 7.013 0 0 0-4.989-2.065h-33.4V8.1a3.559 3.559 0 0 1 3.5-3.57h42.272a3.515 3.515 0 0 1 3.5 3.57v51.568zm-52.8-37.353a1.783 1.783 0 0 1-1.767-1.785 1.728 1.728 0 0 1 .519-1.26 1.749 1.749 0 0 1 1.248-.525H40.5a1.785 1.785 0 0 1 0 3.57zm12.336 14.212a1.9 1.9 0 0 1 1.247.525 1.785 1.785 0 0 1 .52 1.26 1.729 1.729 0 0 1-.52 1.26 1.75 1.75 0 0 1-1.247.525H21.134a1.841 1.841 0 0 1-1.248-.525 1.786 1.786 0 0 1-.519-1.26 1.725 1.725 0 0 1 .519-1.26 1.747 1.747 0 0 1 1.248-.526h12.334zM49.3 27.637a1.754 1.754 0 0 1 1.213.525 1.784 1.784 0 0 1 .519 1.26 1.732 1.732 0 0 1-1.732 1.785H21.134a1.778 1.778 0 0 1-1.734-1.785 1.733 1.733 0 0 1 1.733-1.785z" transform="translate(0 -.995)" style="fill:#afafaf;opacity:.5"/>
</svg>
