<svg xmlns="http://www.w3.org/2000/svg" width="560.783" height="39.999"><defs><style><![CDATA[.grp>path{fill:#fff}]]></style></defs><g class="grp"><path d="M463.642 20.952h1.905v1.905h-1.905zM308.56 22.857h1.905v1.905h-1.905zm13.334-1.905h1.905v1.905h-1.905zm141.748 3.809h1.905v1.905h-1.905zm-147.463-1.904h1.905v1.905h-1.905zm147.463 5.713h1.905v1.905h-1.905zM335.227 15.238h1.905v1.905h-1.905zm-32.38 5.714h1.905v1.905h-1.905zm9.523 1.905h1.905v1.905h-1.905zM463.642 9.524h1.905v1.905h-1.905zm-177.938 5.714h1.905v1.905h-1.905zm39.999 5.714h1.905v1.905h-1.905zm9.524-1.905h1.905v1.905h-1.905zm128.415-5.714h1.905v1.905h-1.905z"/><path d="M304.751 22.857h1.905v1.905h-1.905zm32.381-5.714h1.905v1.905h-1.905zm-3.81 3.809h1.905v1.905h-1.905zm130.32-3.809h1.905v1.905h-1.905zm-3.809-3.81h1.905v1.905h-1.905zm19.047 3.81h1.905v1.905h-1.905zm-164.605 3.809h1.905v1.905h-1.905zm145.558 0h1.905v1.905h-1.905zm-141.749 0h1.905v1.905h-1.905zm1.905 1.905h1.905v1.905h-1.905zM478.88 9.524h1.905v1.905h-1.905zm-7.619 0h1.905v1.905h-1.905zM312.37 19.047h1.905v1.905h-1.905zm147.463 9.523h1.905v1.905h-1.905zM327.607 15.238h1.905v1.905h-1.905zm-39.997-1.905h1.905v1.905h-1.905zm183.651 0h1.905v1.905h-1.905zm-7.619 22.856h1.905v1.905h-1.905zM314.275 24.761h1.905v1.905h-1.905zm149.367 7.684h1.905v1.905h-1.905zM319.989 15.238h1.905v1.905h-1.905zm139.844-9.486h1.905v1.905h-1.905zM318.084 24.761h1.905v1.905h-1.905zM283.8 13.333h1.905v1.905H283.8zm38.094 11.428h1.905v1.905h-1.905zM478.88 36.189h1.905v1.905h-1.905zM299.037 17.143h1.905v1.905h-1.905zm-5.714 1.904h1.905v1.905h-1.905zm-17.143-1.904h1.905v1.905h-1.905z"/><path d="M295.227 17.143h1.905v1.905h-1.905zm-3.809 0h1.905v1.905h-1.905zm40 1.904h1.905v1.905h-1.905zM478.88 32.445h1.905v1.905h-1.905zM289.514 15.238h1.905v1.905h-1.905zM478.88 28.57h1.905v1.905h-1.905zM467.452 5.752h1.905v1.905h-1.905zm3.809 30.437h1.905v1.905h-1.905zM274.276 19.047h1.905v1.905h-1.905zm22.857-3.809h1.905v1.905h-1.905zm177.938 5.714h1.905v1.905h-1.905zm0-15.2h1.905v1.905h-1.905zm-3.81 19.009h1.905v1.905h-1.905zm3.81-11.428h1.905v1.905h-1.905zm-3.81 7.619h1.905v1.905h-1.905zm0 11.493h1.905v1.905h-1.905zM293.323 15.238h1.905v1.905h-1.905zM471.261 28.57h1.905v1.905h-1.905zm-3.809-15.237h1.905v1.905h-1.905zm-3.81-11.428h1.905V3.81h-1.905zm-162.7 17.142h1.905v1.905h-1.905zM471.261 1.905h1.905V3.81h-1.905z"/><path d="M333.322 17.143h1.905v1.905h-1.905zm-13.333 1.904h1.905v1.905h-1.905zm147.463 17.142h1.905v1.905h-1.905zm-3.81-30.437h1.905v1.905h-1.905zM327.607 19.047h1.905v1.905h-1.905zm151.273 1.905h1.905v1.905h-1.905zm-174.129-1.905h1.905v1.905h-1.905zm3.809 0h1.905v1.905h-1.905zm158.892 1.905h1.905v1.905h-1.905zm3.809-3.809h1.905v1.905h-1.905zm-174.128 1.904h1.905v1.905h-1.905zm177.938 9.523h1.905v1.905h-1.905zm-15.238 3.875h1.905v1.905h-1.905zM306.656 20.952h1.905v1.905h-1.905zm3.809 0h1.905v1.905h-1.905zm168.415 3.809h1.905v1.905h-1.905zm-3.809 11.428h1.905v1.905h-1.905zm-7.619-7.619h1.905v1.905h-1.905zm-11.654 3.875h1.905v1.905h-1.905zM436.176 9.524h1.905v1.905h-1.905zm0-3.772h1.905v1.905h-1.905zM279.991 9.524h1.905v1.905h-1.905zm-1.907 5.713v1.9h1.906v-1.9h1.9v-1.9h-1.9v-1.9h-1.906v1.9h-1.9v1.9zm158.092-1.904h1.905v1.905h-1.905zm3.81 19.112h1.905v1.905h-1.905zm0 3.744h1.905v1.905h-1.905zM283.8 9.524h1.905v1.905H283.8zm-9.524 5.714h1.905v1.905h-1.905zm161.9 13.332h1.905v1.905h-1.905zM287.61 9.524h1.905v1.905h-1.905zm-20.953 9.523h1.905v1.905h-1.905zm169.519 5.714h1.905v1.905h-1.905zm0 7.684h1.905v1.905h-1.905zm0-15.302h1.905v1.905h-1.905zm-121.901 0h1.905v1.905h-1.905zm121.901 3.809h1.905v1.905h-1.905zM308.56 15.238h1.905v1.905h-1.905zM439.986 28.57h1.905v1.905h-1.905zM310.465 17.143h1.905v1.905h-1.905zm125.711 19.046h1.905v1.905h-1.905zm3.81-26.665h1.905v1.905h-1.905zm-137.139 3.809h1.905v1.905h-1.905zm149.142 22.856h1.905v1.905h-1.905zM312.37 15.238h1.905v1.905h-1.905zM439.986 1.905h1.905V3.81h-1.905zM304.751 15.238h1.905v1.905h-1.905zm135.235 9.523h1.905v1.905h-1.905zM293.323 11.428h1.905v1.905h-1.905zm146.663 9.524h1.905v1.905h-1.905zM291.418 9.524h1.905v1.905h-1.905zm148.568 3.809h1.905v1.905h-1.905zm-139.044-1.905h1.905v1.905h-1.905zm-3.809 0h1.905v1.905h-1.905zm142.853 5.715h1.905v1.905h-1.905zm-167.615 0h1.905v1.905h-1.905zm156.186 0h1.905v1.905h-1.905zm-175.232 0h1.905v1.905h-1.905zm-1.906 1.904h1.905v1.905h-1.905zm177.138 5.714h1.905v1.905h-1.905zm0-3.809h1.905v1.905h-1.905z"/><path d="M268.561 17.143h1.905v1.905h-1.905zm159.996-7.619h1.905v1.905h-1.905zm-177.138 5.714h1.905v1.905h-1.905zm-1.904 1.905h1.905v1.905h-1.905zm17.142 5.714h1.905v1.905h-1.905zm161.9 13.332h1.905v1.905h-1.905zm-161.9-13.333v-1.9h-1.906v-1.9h-1.9v1.9h-1.9v1.9h1.9v1.9h1.9v-1.9zM424.748 1.905h1.905V3.81h-1.905zm3.809 26.665h1.905v1.905h-1.905zm-169.519-5.714v-1.9h-1.9v-1.9h-1.9v1.9h-1.9v1.9h1.9v1.9h1.9v-1.9zm169.519 9.589h1.905v1.905h-1.905zm-169.519-9.588h1.905v1.905h-1.905zm169.519-9.524h1.905v1.905h-1.905zm-163.805 3.81h1.905v1.905h-1.905zm167.615-3.81h1.905v1.905h-1.905zm0-3.809h1.905v1.905h-1.905zm0 7.619h1.905v1.905h-1.905zm0-15.238h1.905V3.81h-1.905zm0 3.847h1.905v1.905h-1.905zm0 15.2h1.905v1.905h-1.905zm-3.81-15.2h1.905v1.905h-1.905zm-161.9 9.486h1.905v1.905h-1.905zm-7.619 3.809h1.905v1.905h-1.905zm173.329 17.142h1.905v1.905h-1.905zM257.133 17.143h1.905v1.905h-1.905zM428.557 1.905h1.905V3.81h-1.905zM259.038 15.238h1.905v1.905h-1.905zm173.329 9.523h1.905v1.905h-1.905zm0 3.809h1.905v1.905h-1.905z"/><path d="M260.942 17.143h1.905v1.905h-1.905zM439.986 5.752h1.905v1.905h-1.905zm-158.091 5.676h1.905v1.905h-1.905zm-1.904 5.715h1.905v1.905h-1.905zM443.705 5.752h1.905v1.905h-1.905zm0 7.581h1.905v1.905h-1.905zm-161.81 1.905h1.905v1.905h-1.905zm165.951 20.951h1.905v1.905h-1.905zm0-3.744h1.905v1.905h-1.905zM283.8 17.143h1.905v1.905H283.8z"/><path d="M281.895 19.047h1.905v1.905h-1.905zm161.81 17.142h1.905v1.905h-1.905zm0-7.619h1.905v1.905h-1.905zm0 3.875h1.905v1.905h-1.905zM295.227 20.952h1.905v1.905h-1.905zm-7.617-3.809h1.905v1.905h-1.905zm156.095 3.809h1.905v1.905h-1.905zm0 3.809h1.905v1.905h-1.905z"/><path d="M289.514 19.047h1.905v1.905h-1.905zm1.904 1.905h1.905v1.905h-1.905zm9.524-5.714h1.905v1.905h-1.905zm1.905 1.905h1.905v1.905h-1.905zM447.846 5.752h1.905v1.905h-1.905zm0 3.772h1.905v1.905h-1.905zm11.987 26.665h1.905v1.905h-1.905zM447.846 1.905h1.905V3.81h-1.905zM299.037 13.333h1.905v1.905h-1.905zM447.846 28.57h1.905v1.905h-1.905zm-141.19-11.427h1.905v1.905h-1.905zm141.19 7.618h1.905v1.905h-1.905zm0-3.809h1.905v1.905h-1.905zm-158.332-9.524h1.905v1.905h-1.905zm-3.81 0h1.905v1.905h-1.905zm162.142 5.715h1.905v1.905h-1.905zm-152.619-3.81h1.905v1.905h-1.905zm-3.809 0h1.905v1.905h-1.905zm156.428 0h1.905v1.905h-1.905zm7.952 0h1.905v1.905h-1.905zm-126.285 3.81h1.905v1.905h-1.905zm0 3.809h1.905v1.905h-1.905zm122.476-15.2h1.905v1.905h-1.905zm0 7.581h1.905v1.905h-1.905zm-124.382 9.524h1.905v1.905h-1.905zm128.191 13.332h1.905v1.905h-1.905zM478.88 1.905h1.905V3.81h-1.905zM325.703 17.143h1.905v1.905h-1.905zm126.286 7.618h1.905v1.905h-1.905zm-133.905-7.618h1.905v1.905h-1.905zM451.989 28.57h1.905v1.905h-1.905zm-135.81-9.523h1.905v1.905h-1.905z"/><path d="M325.703 24.761h1.905v1.905h-1.905zm-1.905-5.714h1.905v1.905h-1.905zm128.191-1.904h1.905v1.905h-1.905zm0 3.809h1.905v1.905h-1.905z"/><path d="M321.894 17.143h1.905v1.905h-1.905zm-22.857 3.809h1.905v1.905h-1.905zM455.798 9.524h1.905v1.905h-1.905zM306.656 24.761h1.905v1.905h-1.905zm-3.809 0h1.905v1.905h-1.905zm149.142 7.684h1.905v1.905h-1.905zm-141.524-7.684h1.905v1.905h-1.905zM455.798 1.905h1.905V3.81h-1.905zm0 3.847h1.905v1.905h-1.905zM300.942 22.857h1.905v1.905h-1.905zm19.047 3.809h1.905v1.905h-1.905zm3.809 0h1.905v1.905h-1.905zm132-1.905h1.905v1.905h-1.905zm0 3.809h1.905v1.905h-1.905zm0-11.427h1.905v1.905h-1.905zM312.37 26.666h1.905v1.905h-1.905zm3.809 0h1.905v1.905h-1.905zm139.619-5.714h1.905v1.905h-1.905zm-80.572 0h1.905v1.905h-1.905zm7.619-15.2h1.905v1.905h-1.905zm3.809 3.772h1.905v1.905h-1.905zm-7.619 3.809h1.905v1.905h-1.905zm-1.905-1.905h1.905v1.905h-1.905zm9.524-5.676h1.905v1.905h-1.905zm-7.619 3.772h1.905v1.905h-1.905zm3.81 0h1.905v1.905h-1.905zm-7.619 3.809h1.905v1.905h-1.905zm9.523 5.714h1.905v1.905h-1.905zm-1.904-17.142h1.905V3.81h-1.905zm3.809 0h1.905V3.81h-1.905z"/><path d="M382.845 17.143h1.905v1.905h-1.905zm3.809 0h1.905v1.905h-1.905zm-1.905-13.334h1.905v1.905h-1.905zm-5.714 13.334h1.905v1.905h-1.905zm-3.809-7.619h1.905v1.905h-1.905zm3.809-7.619h1.905V3.81h-1.905zm-3.809 0h1.905V3.81h-1.905zm-5.714 1.904h1.905v1.905h-1.905z"/><path d="M377.13 3.809h1.905v1.905h-1.905zm-1.904 1.943h1.905v1.905h-1.905zm3.809 0h1.905v1.905h-1.905zm-7.619-3.847h1.905V3.81h-1.905zm0 7.619h1.905v1.905h-1.905zm11.429 3.809h1.905v1.905h-1.905zm1.904-1.905h1.905v1.905h-1.905zm-17.142-5.676h1.905v1.905h-1.905zm19.047 15.2h1.905v1.905h-1.905zm-15.238-15.2h1.905v1.905h-1.905zm15.238 7.581h1.905v1.905h-1.905zm5.714-1.905h1.905v1.905h-1.905zm9.523 24.761h1.905v1.905h-1.905zm-11.427-22.856h1.905v1.905h-1.905zM551.259 28.57h1.905v1.905h-1.905zM394.273 13.333h1.905v1.905h-1.905zm-43.809 20.952h1.905v1.905h-1.905zm200.795 1.904h1.905v1.905h-1.905zm-208.414-1.904h1.905v1.905h-1.905zm216.033 1.904h1.905v1.905h-1.905zm-22.857-15.237h1.905v1.905h-1.905zm0 7.618h1.905v1.905h-1.905zm7.619-7.618h1.905v1.905h-1.905zm-7.619-7.619h1.905v1.905h-1.905zm7.619 22.856h1.905v1.905h-1.905zm0-7.619h1.905v1.905h-1.905zM394.273 9.524h1.905v1.905h-1.905zm-1.905 9.523h1.905v1.905h-1.905zm1.905 5.714h1.905v1.905h-1.905zm-1.905 1.905h1.905v1.905h-1.905zm-34.285 7.619h1.905v1.905h-1.905zm32.381-9.524h1.905v1.905h-1.905zm-7.619-3.809h1.905v1.905h-1.905zm11.428 0h1.905v1.905h-1.905zm-7.619 3.809h1.905v1.905h-1.905zm3.81-3.809h1.905v1.905h-1.905z"/><path d="M390.464 17.143h1.905v1.905h-1.905zm92.226 19.046h1.905v1.905h-1.905zm-94.131-5.714h1.905v1.905h-1.905zm5.714-1.905h1.905v1.905h-1.905zm-3.809 0h1.905v1.905h-1.905zm3.809-11.427h1.905v1.905h-1.905zM281.895 38.094h1.905v1.905h-1.905zm-15.238 0h1.905v1.905h-1.905zM262.848 0h1.905v1.905h-1.905zm3.809 0h1.905v1.905h-1.905zm-7.619 0h1.905v1.905h-1.905zm11.429 0h1.905v1.905h-1.905zm-15.238 0h1.905v1.905h-1.905zm3.809 38.094h1.905v1.905h-1.905zM278.085 0h1.905v1.905h-1.905zm3.81 0h1.905v1.905h-1.905zm85.712 1.905h1.905V3.81h-1.905zM285.704 0h1.905v1.905h-1.905zm-11.428 38.094h1.905v1.905h-1.905zm261.745-1.905h1.905v1.905h-1.905zM274.276 0h1.905v1.905h-1.905zm-22.857 0h1.905v1.905h-1.905zm-11.428 0h1.905v1.905h-1.905zm-7.619 0h1.905v1.905h-1.905zm-7.619 0h1.905v1.905h-1.905zm-7.619 0h1.905v1.905h-1.905zm-38.093 0h1.905v1.905h-1.905zm30.475 0h1.905v1.905h-1.905zm-7.619 0h1.905v1.905h-1.905zm-15.238 0h1.905v1.905h-1.905zm64.76 38.094h1.905v1.905h-1.905zM243.8 0h1.905v1.905H243.8zm0 38.094h1.905v1.905H243.8zM247.61 0h1.905v1.905h-1.905zm-11.428 0h1.905v1.905h-1.905zm53.332 0h1.905v1.905h-1.905zM171.422 0h1.905v1.905h-1.905zm118.092 38.094h1.905v1.905h-1.905zM342.845 0h1.905v1.905h-1.905zm22.857 38.094h1.905v1.905h-1.905zm-7.619 0h1.905v1.905h-1.905zM335.227 0h1.905v1.905h-1.905zm7.618 38.094h1.905v1.905h-1.905zm7.619 0h1.905v1.905h-1.905zm0-38.094h1.905v1.905h-1.905zm7.619 0h1.905v1.905h-1.905zm5.715 1.905h1.905V3.81h-1.905zm24.761 36.189h1.905v1.905h-1.905zm7.619 0h1.905v1.905h-1.905zM327.607 0h1.905v1.905h-1.905zm53.333 38.094h1.905v1.905h-1.905zm-7.619 0h1.905v1.905h-1.905zm-49.523 0h1.905v1.905h-1.905zM304.751 0h1.905v1.905h-1.905zm3.809 38.094h1.905v1.905h-1.905zm3.81 0h1.905v1.905h-1.905zM293.323 0h1.905v1.905h-1.905zm22.856 38.094h1.905v1.905h-1.905zM297.133 0h1.905v1.905h-1.905zm7.618 38.094h1.905v1.905h-1.905zm15.238 0h1.905v1.905h-1.905zm7.618 0h1.905v1.905h-1.905zm3.811 0h1.905v1.905h-1.905zM312.37 0h1.905v1.905h-1.905zm7.619 0h1.905v1.905h-1.905zm-22.856 38.094h1.905v1.905h-1.905zm38.094 0h1.905v1.905h-1.905zm55.237-5.649h1.905v1.905h-1.905zm-24.762-9.588h1.905v1.905h-1.905zm1.905-1.905h1.905v1.905h-1.905zm0 3.809h1.905v1.905h-1.905zm53.332-22.856h1.905V3.81h-1.905zm0 3.847h1.905v1.905h-1.905zm0 3.772h1.905v1.905h-1.905zm-57.141 7.619h1.905v1.905h-1.905zm130.319-7.619h1.905v1.905h-1.905zm0-7.619h1.905V3.81h-1.905zm3.81 34.284h1.905v1.905h-1.905zm-147.463-9.523h1.905v1.905h-1.905zm9.524-13.333h1.905v1.905h-1.905zm-17.143 13.333h1.905v1.905h-1.905zM497.927 5.752h1.905v1.905h-1.905zm-3.81 11.391h1.905v1.905h-1.905zm3.81 11.427h1.905v1.905h-1.905zM312.37 7.619h1.905v1.905h-1.905zM420.939 28.57h1.905v1.905h-1.905zM413.32 1.905h1.905V3.81h-1.905zm7.619 22.856h1.905v1.905h-1.905zM413.32 5.752h1.905v1.905h-1.905zm84.607 15.2h1.905v1.905h-1.905zm0-7.619h1.905v1.905h-1.905zm-223.651 9.523v-1.9h-1.906v-1.9h-1.9v1.9h-1.9v1.9h1.9v1.9h1.9v-1.9zm146.663-9.523h1.905v1.905h-1.905zm0 3.81h1.905v1.905h-1.905zm-64.76-7.619h1.905v1.905h-1.905zm-36.19-1.905h1.905v1.905h-1.905zm100.95 13.333h1.905v1.905h-1.905zM327.607 7.619h1.905v1.905h-1.905zm5.715 20.951h1.905v1.905h-1.905zm153.176-11.427h1.905v1.905h-1.905zm-130.319 3.809h1.905v1.905h-1.905zM486.498 9.524h1.905v1.905h-1.905zm-132.224 9.523h1.905v1.905h-1.905zm132.224 9.523h1.905v1.905h-1.905zm-136.034-5.713h1.905v1.905h-1.905zm-7.619 0h1.905v1.905h-1.905zm143.653 1.904h1.905v1.905h-1.905zm-3.808-3.809h1.905v1.905h-1.905zm3.808 11.493h1.905v1.905h-1.905zm-3.808-19.112h1.905v1.905h-1.905zm11.427 11.428h1.905v1.905h-1.905zM482.69 5.752h1.905v1.905h-1.905zm3.808 30.437h1.905v1.905h-1.905zm-3.808-7.619h1.905v1.905h-1.905zm7.618-7.618h1.905v1.905h-1.905zm0 15.237h1.905v1.905h-1.905zm0-7.619h1.905v1.905h-1.905zm0-15.237h1.905v1.905h-1.905zm3.809 19.112h1.905v1.905h-1.905zm0 3.744h1.905v1.905h-1.905zm-3.809-30.437h1.905v1.905h-1.905zm-3.81-3.847h1.905V3.81h-1.905zm-158.891 9.523h1.905v1.905h-1.905zm7.62 0h1.905v1.905h-1.905zm20.952 5.715h1.905v1.905h-1.905zm-3.81-3.81h1.905v1.905h-1.905zm-39.999-1.905h1.905v1.905h-1.905zm7.619 0h1.905v1.905h-1.905zm59.046 13.333h1.905v1.905h-1.905zm13.333-20.952h1.905v1.905h-1.905zm-72.379 0h1.905v1.905h-1.905zm7.618 0h1.905v1.905h-1.905zm-15.237 0h1.905v1.905h-1.905zm200.795 1.943h1.905v1.905h-1.905zM304.751 3.809h1.905v1.905h-1.905zm208.414 9.524h1.905v1.905h-1.905z"/><path d="M390.464 1.905h1.905V3.81h-1.905zm126.51 30.54h1.905v1.905h-1.905zM194.278 0h1.905v1.905h-1.905zm165.71 5.752h1.905v1.905h-1.905zm11.428 11.391h1.905v1.905h-1.905zm-3.809-3.81h1.905v1.905h-1.905zm-3.809-3.809h1.905v1.905h-1.905zm30.475-7.619h1.905V3.81h-1.905zm134.129 19.047h1.905v1.905h-1.905zm0 15.237h1.905v1.905h-1.905zm0-7.619h1.905v1.905h-1.905zM390.464 5.752h1.905v1.905h-1.905zm0 3.772h1.905v1.905h-1.905zm134.129 22.921h1.905v1.905h-1.905zm3.809-19.112h1.905v1.905h-1.905zm0-7.581h1.905v1.905h-1.905zm-11.428 19.009h1.905v1.905h-1.905zm3.809 3.809h1.905v1.905h-1.905zM394.273 5.752h1.905v1.905h-1.905zm126.51 30.437h1.905v1.905h-1.905zm0-30.437h1.905v1.905h-1.905zm0 15.2h1.905v1.905h-1.905zm0-7.619h1.905v1.905h-1.905zm-122.7-11.428h1.905V3.81h-1.905zm107.463 19.047h1.905v1.905h-1.905zm-92.226 0h1.905v1.905h-1.905zm0-3.809h1.905v1.905h-1.905zm92.226 11.427h1.905v1.905h-1.905zM405.701 1.905h1.905V3.81h-1.905zm99.845 3.847h1.905v1.905h-1.905zm0 7.581h1.905v1.905h-1.905zm0 22.856h1.905v1.905h-1.905zm3.81-3.744h1.905v1.905h-1.905zm-7.619-7.684h1.905v1.905h-1.905zM413.32 9.524h1.905v1.905h-1.905zm88.417 7.619h1.905v1.905h-1.905zm-88.417-3.81h1.905v1.905h-1.905zm88.417-3.809h1.905v1.905h-1.905zm-96.036 0h1.905v1.905h-1.905zm103.655 15.237h1.905v1.905h-1.905zm-166.511 5.714h1.905v1.905h-1.905zm15.238 0h1.905v1.905h-1.905zm-7.619 0h1.905v1.905h-1.905zm151.273 1.97h1.905v1.905h-1.905zM379.035 28.57h1.905v1.905h-1.905zm-1.905-1.904h1.905v1.905h-1.905zm28.571-13.333h1.905v1.905h-1.905zm103.655 3.81h1.905v1.905h-1.905zM405.701 5.752h1.905v1.905h-1.905zm107.464 15.2h1.905v1.905h-1.905zm0 15.237h1.905v1.905h-1.905zM398.083 5.752h1.905v1.905h-1.905zM513.165 28.57h1.905v1.905h-1.905zm-80.798 3.875h1.905v1.905h-1.905zm-60.951-11.493h1.905v1.905h-1.905z"/><path d="M369.512 19.047h1.905v1.905h-1.905zm-1.905-1.904h1.905v1.905h-1.905zm5.714 5.714h1.905v1.905h-1.905zM245.705 5.714v1.9h1.9v1.9h1.9v-1.9h1.9v-1.9h-1.9V3.808h-1.9v1.9zM375.226 28.57h1.905v1.905h-1.905zm0-3.809h1.905v1.905h-1.905zM356.179 5.752h1.905v1.905h-1.905zm7.619 7.581h1.905v1.905h-1.905zm7.618 15.237h1.905v1.905h-1.905zM352.369 5.752h1.905v1.905h-1.905z"/><path d="M358.083 7.619h1.905v1.905h-1.905zm3.81 3.809h1.905v1.905h-1.905zm-1.905-1.904h1.905v1.905h-1.905zm-3.809 19.046h1.905v1.905h-1.905zm-9.524-1.904h1.905v1.905h-1.905zm1.905 1.904h1.905v1.905h-1.905zm3.809 0h1.905v1.905h-1.905zm-7.619 0h1.905v1.905h-1.905zm-5.714-1.904h1.905v1.905h-1.905zm15.238 0h1.905v1.905h-1.905z"/><path d="M340.94 28.57h1.905v1.905h-1.905zm20.953-1.904h1.905v1.905h-1.905zm5.714 1.904h1.905v1.905h-1.905zm1.905-1.904h1.905v1.905h-1.905zM350.464 7.619h1.905v1.905h-1.905zm13.334 20.951h1.905v1.905h-1.905zm-3.81 0h1.905v1.905h-1.905zm11.428-3.809h1.905v1.905h-1.905zM314.275 5.752h1.905v1.905h-1.905zm-32.38-1.943h1.905v1.905h-1.905zm17.142 1.943h1.905v1.905h-1.905zm-20.952-1.943h1.905v1.905h-1.905z"/><path d="M348.56 5.752h1.905v1.905h-1.905zm-51.427-1.943h1.905v1.905h-1.905zm-3.81 0h1.905v1.905h-1.905zm-3.809 0h1.905v1.905h-1.905zm-3.81 0h1.905v1.905h-1.905zm-32.38 1.905v1.9h1.9v1.9h1.9v-1.9h1.9v-1.9h-1.9V3.808h-1.9v1.9zm-1.905-1.905h1.905v1.905h-1.905zm7.619 0h1.905v1.905h-1.905zm9.524 1.905v1.9h1.9v1.9h1.9v-1.9h1.906v-1.9h-1.906V3.808h-1.9v1.9z"/><path d="M260.942 5.714v1.9h1.9v1.9h1.9v-1.9h1.906v-1.9h-1.906V3.808h-1.9v1.9zm5.715-1.905h1.905v1.905h-1.905zm7.619 0h1.905v1.905h-1.905zm60.951 3.81h1.905v1.905h-1.905zm-32.38-1.867h1.905v1.905h-1.905zm30.475 0h1.905v1.905h-1.905zm7.618 0h1.905v1.905h-1.905zm-11.427 0h1.905v1.905h-1.905zm15.237 0h1.905v1.905h-1.905zm-1.905 1.867h1.905v1.905h-1.905zm-5.713-1.867h1.905v1.905h-1.905zm0 22.818h1.905v1.905h-1.905zM310.465 5.752h1.905v1.905h-1.905zm15.238 0h1.905v1.905h-1.905zm-19.047 0h1.905v1.905h-1.905zm15.238 0h1.905v1.905h-1.905zm-3.81 0h1.905v1.905h-1.905zm47.618 9.486h1.905v1.905h-1.905zm-100.95-5.714h1.905v1.905h-1.905zm-11.427 0h1.905v1.905h-1.905zm3.808 26.666v-1.9h-1.9v1.9h-1.9v1.9h1.9v1.9h1.9v-1.9h1.9v-1.9zm7.618 0v-1.9h-1.9v1.9h-1.9v1.9h1.9v1.9h1.9v-1.9h1.906v-1.9zm7.62 0v-1.9h-1.9v1.9h-1.9v1.9h1.9v1.9h1.9v-1.9h1.906v-1.9zM259.038 7.619h1.905v1.905h-1.905zm1.904 1.905h1.905v1.905h-1.905zm-3.809 0h1.905v1.905h-1.905zm-11.428 0h1.905v1.905h-1.905zM243.8 7.619h1.905v1.905H243.8zm-1.903 28.571v-1.91h-1.906v1.907h-1.907V34.28h1.907v-1.907h-1.907v-1.9h-1.9v1.9h-1.907v1.907h1.907v1.907h-1.907V34.28h-1.906v1.907h-1.906V34.28h1.906v-1.907h-1.906v-1.9h1.906v1.9h1.906v-1.9h1.907v-1.907h-1.907v-1.907h-1.906v1.907h-1.906v-1.907h1.906v-1.907h-1.906v-1.9h-1.9v1.9h-1.906v1.907h1.906v1.907h-1.906v-1.907h-1.907v1.907h-1.9v-1.907h1.9v-1.907h-1.9v-1.9h1.9v1.9h1.907v-1.9h1.906v-1.907h-1.906v-1.907h-1.907v1.907h-1.9v-1.907h1.9v-1.9h-1.9v-1.9h-1.906v1.907h-1.907v1.9h1.907v1.907h-1.907v-1.907h-1.906v1.907h-1.9v-1.907h1.9v-1.9h-1.9v-1.907h1.9v1.907h1.906v-1.907h1.907V13.33h-1.907v-1.9h-1.906v1.9h-1.9v-1.9h1.9v-1.9h-1.9V7.62h-1.907v1.91h-1.906v1.9h1.906v1.9h-1.906v-1.9h-1.907v1.9h-1.9v-1.9h1.9v-1.9h-1.9V7.62h1.9v1.91h1.907V7.62h1.906V5.713h-1.906V3.806h-1.907v1.907h-1.9V3.806h1.9v-1.9h-1.9V0h-1.911v1.907h-1.906v1.9h1.906v1.907h-1.906V3.807h-1.906v1.907h-1.9V3.807h1.9v-1.9h-1.9V0h-1.906v1.907h-1.906v1.9h1.906v1.907h-1.906V3.807h-1.906v1.907h-1.9V3.807h1.9v-1.9h-1.9V0h-1.906v1.907h-1.907v1.9h1.907v1.907h-1.907V3.807h-1.906v1.907h-1.9V3.807h1.9v-1.9h-1.9V0h-1.907v1.907h-1.9v1.9h1.907v1.907h-1.907V3.807h-1.9v1.907h-1.907V3.807h1.907v-1.9h-1.907V0h-1.911v1.907h-1.906v1.9h1.906v1.907h-1.906V3.807h-1.9v1.907h-1.906V3.807h1.906v-1.9h-1.906V0h-1.907v1.907h-1.9V0h-1.9v1.907h-1.906V0h-1.907v1.907h-1.906V0h-1.9v1.907h-1.906V0h-1.907v1.907h-1.906V0h-1.9v1.907h-1.907V0h-1.907v1.907h-1.911V0h-1.9v1.907h-1.9V0h-5.712v1.907h-1.907V0h-1.906v1.907h-1.9V0h-1.909v1.907h-1.906V0H121.9v1.907H120V0h-1.907v1.907h-1.906V0h-1.907v1.907h-1.9V0h-1.907v1.907h-1.906V0h-1.907v1.907h-1.9V0h-1.907v1.907h-1.907V0h-5.713v1.907h-1.907V0h-5.712v1.907h-1.906V0h-5.712v1.907h-1.907V0h-5.712v1.907h-1.906V0h-5.713v1.907h-1.9V0h-5.721v1.907h-1.9V0h-5.721v1.907h-1.9V0h-5.721v1.907h-1.9V0h-40v39.994h78.092v-1.9h1.907v1.9h5.712v-1.9h1.907v1.9h5.712v-1.9h1.906v1.9h5.713v-1.9h1.906v1.9h5.713v-1.9h1.906v1.9h5.713v-1.9h1.906v1.9h5.714v-1.9h1.906v1.9h5.712v-1.9h1.907v1.9h5.712v-1.9h1.907v1.9h1.9v-1.9h1.907v1.9h1.907v-1.9h1.907v1.9h1.9v-1.9h1.907v1.9h1.907v-1.9h1.906v1.9h1.9v-1.9h1.906v1.9h1.907v-1.9h1.906v1.9h1.9v-1.9h1.906v1.9h1.907v-1.9h1.906v1.9h1.9v-1.9h1.906v1.9h1.907v-1.9h1.907v1.9h1.9v-1.9h1.907v1.9h1.906v-1.9h1.9v1.9h1.906v-1.9h1.907v1.9h1.906v-1.9h1.9v1.9h1.906v-1.9h1.907v1.9h1.906v-1.9h1.9v1.9h1.906v-1.9h1.907v1.9h1.907v-1.9h1.9v1.9h1.907v-1.9h1.906v1.9h1.907v-1.9h1.9v1.9h1.906v-1.9h1.907v1.9h1.907v-1.9h1.9v1.9h1.907v-1.9h1.906v1.9h1.9v-1.9h1.906v1.9h1.907v-1.9h1.907v1.9h1.9v-1.9h1.907v1.9h1.907v-1.9h1.906V36.19zM49.516 9.53h-1.9V7.62h1.9zm7.62 7.619h-1.9v-1.9h1.9zm0-7.619h-1.9V7.62h1.9zm7.619 15.23h-1.9v-1.9h1.9zm0-7.611h-1.9v-1.9h1.9zm0-7.619h-1.9V7.62h1.9zm7.62 22.849h-1.906v-1.9h1.906zm0-7.62h-1.906v-1.9h1.906zm0-7.611h-1.906v-1.9h1.906zm0-7.619h-1.906V7.622h1.906zm7.621 22.849h-1.907v-1.9h1.907zm0-7.62h-1.907v-1.9h1.907zm0-7.611h-1.907v-1.9h1.907zm0-7.619h-1.907V7.621h1.907zm3.813-3.814h-1.907V3.807h1.907zm3.805 26.663h-1.906v-1.9h1.907zm0-7.62h-1.906v-1.9h1.907zm0-7.611h-1.906v-1.9h1.907zm0-7.619h-1.906V7.62h1.907zm3.814 3.806h-1.907V11.43h1.907zm0-7.619h-1.907V3.807h1.907zm3.805 26.663h-1.907v-1.9h1.907zm0-7.62h-1.907v-1.9h1.907zm0-7.611h-1.907v-1.9h1.907zm0-7.619h-1.907V7.62h1.907zm3.813 11.425H97.14v-1.907h1.906zm0-7.619H97.14V11.43h1.906zm0-7.619H97.14V3.807h1.906zm3.806 26.663h-1.906v-1.9h1.906zm0-7.62h-1.906v-1.9h1.906zm0-7.611h-1.906v-1.9h1.906zm0-7.619h-1.906V7.62h1.906zm3.805 19.044h-1.9v-1.907h1.9zm0-7.619h-1.9v-1.907h1.9zm0-7.619h-1.9V11.43h1.9zm0-7.619h-1.9V3.807h1.9zm3.813 26.663h-1.906v-1.9h1.906zm0-7.62h-1.906v-1.9h1.906zm0-7.611h-1.906v-1.9h1.906zm0-7.619h-1.906V7.62h1.906zm3.806 26.663h-1.9v-1.909h1.9zm0-7.619h-1.9v-1.907h1.9zm0-7.619h-1.9v-1.907h1.9zm0-7.619h-1.9V11.43h1.9zm0-3.806h-1.9V7.62h1.9zm0-3.814h-1.9V3.806h1.9zm3.813 26.663h-1.906v-1.9h1.906zm0-7.62h-1.906v-1.9h1.906zm0-7.611h-1.906v-1.9h1.906zm0-7.619h-1.906V7.62h1.906zm3.806 26.663h-1.9v-1.91h1.9zm0-7.619h-1.9v-1.907h1.9zm0-7.619h-1.9v-1.907h1.9zm0-3.805h-1.9V15.24h1.9zm0-3.814h-1.9V11.43h1.9zm0-3.806h-1.9V7.619h1.9zm0-3.814h-1.9V3.805h1.9zm3.814 26.663h-1.906v-1.9h1.906zm0-7.62h-1.906v-1.9h1.906zm0-7.611h-1.906v-1.906h1.906zm0-7.619h-1.906V7.618h1.906zm3.806 26.663h-1.9v-1.91h1.9zm0-7.619h-1.9v-1.907h1.9zm0-3.814h-1.9v-1.9h1.9zm0-3.806h-1.9v-1.907h1.9zm0-3.805h-1.9v-1.906h1.9zm0-3.814h-1.9v-1.9h1.9zm0-3.806h-1.9V7.617h1.9zm0-3.814h-1.9V3.803h1.9zm3.814 26.663h-1.907v-1.9h1.907zm0-7.62h-1.907v-1.9h1.907zm0-7.611h-1.907v-1.906h1.907zm0-7.619h-1.907V7.616h1.907zm3.805 26.663h-1.9v-1.91h1.9zm0-3.813h-1.9v-1.9h1.9zm0-3.806h-1.9V26.66h1.9zm0-3.814h-1.9v-1.9h1.9zm0-3.806h-1.9V19.04h1.9zm0-3.805h-1.9v-1.906h1.9zm0-3.814h-1.9V11.43h1.9zm0-3.806h-1.9V7.615h1.9zm0-3.814h-1.9V3.801h1.9zm3.814 26.663h-1.902v-1.9h1.907zm0-7.62h-1.902v-1.9h1.907zm0-7.611h-1.902v-1.906h1.907zm0-7.619h-1.902V7.614h1.907zm3.806 26.663h-1.908v-1.91h1.907zm0-3.813h-1.908v-1.9h1.907zm0-3.806h-1.908v-1.907h1.907zm0-3.814h-1.908v-1.9h1.907zm0-3.806h-1.908v-1.907h1.907zm0-3.805h-1.908v-1.906h1.907zm0-3.814h-1.908V11.43h1.907zm0-3.806h-1.908V7.613h1.907zm0-3.814h-1.908V3.799h1.907zm3.814 26.663h-1.907v-1.9h1.907zm0-7.62h-1.907v-1.9h1.907zm0-7.611h-1.907v-1.906h1.907zm0-7.619h-1.907V7.612h1.907zm0-3.814h-1.907V3.798h1.907zm3.806 30.479h-1.907v-1.913h1.907zm0-3.813h-1.907v-1.9h1.907zm0-3.806h-1.907v-1.907h1.907zm0-3.814h-1.907v-1.9h1.907zm0-3.805h-1.907v-1.907h1.907zm0-3.806h-1.907v-1.908h1.907zm0-3.814h-1.907V11.43h1.907zm0-3.806h-1.907V7.613h1.907zm0-3.814h-1.907V3.81h1.907zm3.813 26.663h-1.906v-1.9h1.906zm0-7.62h-1.906v-1.9h1.906zm0-7.611h-1.906V15.23h1.906zm0-3.814h-1.906V11.43h1.906zm0-3.806h-1.906V7.611h1.906zm0-3.814h-1.906V3.81h1.906zm3.806 30.479h-1.906v-1.915h1.906zm0-3.814h-1.906v-1.9h1.906zm0-3.806h-1.906V26.67h1.906zm0-3.814h-1.906v-1.9h1.906zm0-3.805h-1.906V19.05h1.906zm0-3.806h-1.906v-1.91h1.906zm0-3.813h-1.906V11.43h1.906zm0-3.806h-1.906V7.63h1.906zm0-3.814h-1.906V3.798h1.906zm3.813 26.663H161.9v-1.9h1.906zm0-7.62H161.9v-1.9h1.906zm0-3.805H161.9V19.05h1.906zm0-3.806H161.9v-1.91h1.906zm0-3.813H161.9V11.43h1.906zm0-3.806H161.9V7.63h1.906zm0-3.814H161.9V3.797h1.906zm3.806 30.48h-1.907v-1.918h1.906zm0-3.813h-1.907v-1.9h1.906zm0-3.806h-1.907v-1.907h1.906zm0-3.814h-1.907v-1.9h1.906zm0-3.806h-1.907v-1.907h1.906zm0-3.805h-1.907v-1.914h1.906zm0-3.814h-1.907V11.43h1.906zm0-3.806h-1.907V7.63h1.906zm0-3.814h-1.907V3.799h1.906zm3.814 26.663h-1.906v-1.9h1.906zm0-3.806h-1.906v-1.907h1.906zm0-3.814h-1.906v-1.9h1.906zm0-3.806h-1.906v-1.907h1.906zm0-3.805h-1.906v-1.914h1.906zm0-3.814h-1.906V11.43h1.906zm0-3.806h-1.906V7.63h1.906zm3.806 26.663h-1.906v-1.918h1.906zm0-3.813h-1.906v-1.9h1.906zm0-3.806h-1.906v-1.907h1.906zm0-3.814h-1.906v-1.9h1.906zm0-3.806h-1.906v-1.907h1.906zm0-3.805h-1.906v-1.914h1.906zm0-3.814h-1.906V11.43h1.906zm0-3.806h-1.906V7.63h1.906zm3.815 26.663h-1.901v-1.918h1.907zm0-3.813h-1.901v-1.9h1.907zm0-3.806h-1.901v-1.907h1.907zm0-3.814h-1.901v-1.9h1.907zm0-3.806h-1.901v-1.907h1.907zm0-3.805h-1.901v-1.914h1.907zm3.806 19.044h-1.907v-1.918h1.907zm0-3.814h-1.907v-1.9h1.907zm0-3.805h-1.907v-1.907h1.907zm0-3.814h-1.907v-1.9h1.907zm0-3.806h-1.907v-1.907h1.907zm0-3.805h-1.907v-1.913h1.907zm0-7.619h-1.907v1.9h1.907v1.907h-1.907V11.43h-1.9v1.9h-1.9v-1.9h1.907v-1.9h-1.907V7.62h1.907v1.91h1.9V7.62h1.907zm3.806 26.663h-1.9v-1.918h1.9zm0-3.814h-1.9v-1.9h1.9zm0-3.805h-1.9v-1.907h1.9zm0-3.814h-1.9v-1.9h1.9zm3.814 11.433h-1.907v-1.918h1.907zm0-3.814h-1.907v-1.9h1.907zm0-3.805h-1.907v-1.907h1.907zm0-3.814h-1.907v-1.9h1.907zm0-7.611h-1.907v1.9h1.907v1.907h-1.907v-1.907h-1.906v1.907h-1.9v-1.907h1.9v-1.9h-1.9v-1.913h1.9v1.907h1.906v-1.907h1.907zm0-7.619h-1.907v1.9h1.907v1.907h-1.907V11.43h-1.906v1.9h-1.9v-1.9h1.9v-1.9h-1.9V7.62h1.9v1.91h1.906V7.62h1.907zm3.805 26.663h-1.9v-1.918h1.9zm0-3.814h-1.9v-1.9h1.9zm3.814 3.814h-1.907v-1.918h1.907zm0-3.814h-1.907v-1.9h1.907zm0-7.62h-1.907v1.907h1.907v1.907h-1.907v-1.907h-1.906v1.907h-1.9v-1.907h1.9v-1.907h-1.9v-1.9h1.9v1.9h1.906v-1.9h1.907zm0-7.611h-1.907v1.9h1.907v1.907h-1.907v-1.907h-1.906v1.907h-1.9v-1.907h1.9v-1.9h-1.9v-1.913h1.9v1.907h1.906v-1.907h1.907zm0-7.619h-1.907v1.9h1.907v1.907h-1.907V11.43h-1.906v1.9h-1.9v-1.9h1.9v-1.9h-1.9V7.62h1.9v1.91h1.906V7.62h1.907zm7.619 22.849h-1.907v1.9h1.907v1.907h-1.907v-1.907h-1.906v1.907h-1.9v-1.907h1.9v-1.907h-1.9v-1.9h1.9v1.9h1.906v-1.9h1.907zm0-7.62h-1.907v1.907h1.907v1.907h-1.907v-1.907h-1.906v1.907h-1.9v-1.907h1.9v-1.907h-1.9v-1.9h1.9v1.9h1.906v-1.9h1.907zm0-7.611h-1.907v1.9h1.907v1.907h-1.907v-1.907h-1.906v1.907h-1.9v-1.907h1.9v-1.9h-1.9v-1.912h1.9v1.907h1.906v-1.907h1.907zm0-7.619h-1.907v1.9h1.907v1.907h-1.907V11.43h-1.906v1.9h-1.9v-1.9h1.9v-1.9h-1.9V7.62h1.9v1.91h1.906V7.62h1.907zm7.619 22.849h-1.906v1.9h1.906v1.907h-1.906v-1.907h-1.907v1.907h-1.9v-1.907h1.9v-1.907h-1.9v-1.9h1.9v1.9h1.907v-1.9h1.906zm0-7.62h-1.906v1.907h1.906v1.907h-1.906v-1.907h-1.907v1.907h-1.9v-1.907h1.9v-1.907h-1.9v-1.9h1.9v1.9h1.907v-1.9h1.906zm0-7.611h-1.906v1.9h1.906v1.907h-1.906v-1.907h-1.907v1.907h-1.9v-1.907h1.9v-1.9h-1.9v-1.911h1.9v1.907h1.907v-1.907h1.906zm7.62 15.23h-1.904v1.9h1.907v1.907h-1.907v-1.907h-1.906v1.907h-1.9v-1.907h1.9v-1.907h-1.9v-1.9h1.9v1.9h1.906v-1.9h1.907zm0-7.62h-1.904v1.907h1.907v1.907h-1.907V26.67h-1.906v1.907h-1.9V26.67h1.9v-1.907h-1.9v-1.9h1.9v1.9h1.906v-1.9h1.907zm7.619 7.62h-1.906v1.9h1.906v1.907h-1.906v-1.907h-1.907v1.907h-1.9v-1.907h1.9v-1.907h-1.9v-1.9h1.9v1.9h1.907v-1.9h1.906zm20.946-22.839h1.905v1.905h-1.905zm-.001 26.666v-1.9h-1.9v1.9h-1.9v1.9h1.9v1.9h1.9v-1.9h1.9v-1.9zm-7.619-26.666h1.905v1.905h-1.905zm9.524-1.905h1.905v1.905h-1.905zM283.8 5.752h1.905v1.905H283.8zm19.046 30.438v-1.9h-1.9v1.9h-1.9v1.9h1.9v1.9h1.9v-1.9h1.906v-1.9zM279.991 5.752h1.905v1.905h-1.905zm7.619 0h1.905v1.905h-1.905zm19.046 30.437h1.905v1.905h-1.905zm-11.43.001v-1.9h-1.9v1.9h-1.9v1.9h1.9v1.9h1.9v-1.9h1.9v-1.9zM266.657 7.619h1.905v1.905h-1.905zm24.761-1.867h1.905v1.905h-1.905zm-22.857 3.772h1.905v1.905h-1.905zm3.81 0h1.905v1.905h-1.905zm7.622 26.666v-1.9h-1.906v1.9h-1.9v1.9h1.9v1.9h1.906v-1.9h1.9v-1.9zM276.18 5.752h1.905v1.905h-1.905z"/><path d="M274.276 7.619h1.905v1.905h-1.905zm13.33 28.571v-1.9h-1.9v1.9h-1.9v1.9h1.9v1.9h1.9v-1.9h1.9v-1.9zm9.525-5.714v-1.912h-1.9v-1.9h-1.9v1.9h-1.9v1.9h1.9v1.9h1.9v-1.9zm7.62-.001h1.905v1.905h-1.905zm-3.809 0h1.905v1.905h-1.905zm-64.76-19.05v1.906h1.9v-1.9h1.9v-1.9h-1.9v-1.9h-1.9v1.9h-1.906v1.9zm60.951 19.05h1.905v1.905h-1.905zm-7.619 0h1.905v1.905h-1.905zm45.713 0h1.905v1.905h-1.905zm-24.762 1.97h1.905v1.905h-1.905zm-20.952-1.969v-1.912h-1.9v-1.9h-1.9v1.9h-1.9v1.9h1.9v1.9h1.9v-1.9zm40 1.969h1.905v1.905h-1.905zm3.809 0h1.905v1.905h-1.905zm-7.619 0h1.905v1.905h-1.905zm-3.809 0h1.905v1.905h-1.905zm-3.81 0h1.905v1.905h-1.905zm-3.809 0h1.905v1.905h-1.905zm-7.619 0h1.905v1.905h-1.905zm-64.76-9.589h1.9v-1.9h-1.9v-1.9h-1.9v1.9h-1.9v1.9h1.9v1.9h1.9zm3.809 3.81h1.9V24.76h-1.9v-1.9h-1.906v1.9h-1.9v1.9h1.9v1.9h1.906zm-7.619-7.618h1.9v-1.9h-1.9v-1.9h-1.9v1.9h-1.906v1.9h1.906v1.9h1.9zm-3.811-3.811h1.906v-1.9h-1.906v-1.9h-1.9v1.9h-1.906v1.9h1.906v1.9h1.9zm-3.81-3.812h1.906v-1.9h-1.906v-1.9h-1.9v1.9h-1.906v1.9h1.906v1.906h1.9zm19.049 17.139v-1.9h-1.9v1.9h-1.9v1.9h1.9v1.9h1.9v-1.9h1.9v-1.9zm17.143 1.912v-1.912h-1.906v-1.9h-1.9v1.9h-1.9v1.9h1.9v1.9h1.9v-1.9zm7.619 0v-1.912h-1.906v-1.9h-1.9v1.9h-1.9v1.9h1.9v1.9h1.9v-1.9zm0-.001h1.905v1.905h-1.905zm7.618.001v-1.912h-1.9v-1.9h-1.906v1.9h-1.9v1.9h1.9v1.9h1.906v-1.9zm-15.237-.001h1.905v1.905h-1.905zm-9.524-1.911v-1.9h-1.9v1.9h-1.9v1.9h1.9v1.9h1.9v-1.9h1.9v-1.9zm24.762 1.911h1.905v1.905h-1.905zm66.665-28.57h1.905V3.81h-1.905zm-11.428 0h1.905V3.81h-1.905zm7.618 0h1.905V3.81h-1.905z"/><path d="M339.036 3.809h1.905v1.905h-1.905z"/><path d="M340.94 1.905h1.905V3.81h-1.905zm-22.856 0h1.905V3.81h-1.905zm34.285 0h1.905V3.81h-1.905zm-57.142 3.847h1.905v1.905h-1.905zm36.191-1.943h1.905v1.905h-1.905zm-5.715-1.904h1.905V3.81h-1.905zm-1.905 1.904h1.905v1.905h-1.905z"/><path d="M333.322 1.905h1.905V3.81h-1.905zm-11.428 0h1.905V3.81h-1.905zm32.38 1.904h1.905v1.905h-1.905zm-24.761-1.904h1.905V3.81h-1.905zm17.142 1.904h1.905v1.905h-1.905zm28.571 13.334h1.905v1.905h-1.905zM243.8 3.809h1.905v1.905H243.8zm112.379-1.904h1.905V3.81h-1.905zm17.142 13.333h1.905v1.905h-1.905zm5.714 5.714h1.905v1.905h-1.905zm3.81 3.809h1.905v1.905h-1.905zm-1.905-1.904h1.905v1.905h-1.905zm-9.524-9.524h1.905v1.905h-1.905zm-7.618-7.581h1.905v1.905h-1.905zm-1.905-1.943h1.905v1.905h-1.905zm-1.905-1.904h1.905V3.81h-1.905z"/><path d="M365.702 7.619h1.905v1.905h-1.905zm1.905 1.905h1.905v1.905h-1.905zm1.905 1.904h1.905v1.905h-1.905zm-108.57-9.523h1.905V3.81h-1.905zm-7.617 0h1.905V3.81h-1.905zm19.046 0h1.905V3.81h-1.905zm-15.238 0h1.905V3.81h-1.905zm127.616 24.761h1.905v1.905h-1.905zM245.705 1.905h1.905V3.81h-1.905zm22.856 0h1.905V3.81h-1.905zm-3.809 0h1.905V3.81h-1.905zm-15.237 0h1.905V3.81h-1.905zM220.944 3.81v1.9h1.906v-1.9h1.9v-1.9h-1.9V.01h-1.906v1.9h-1.9v1.9zm95.235-.001h1.905v1.905h-1.905zm-102.854.001v1.9h1.9v-1.9h1.9v-1.9h-1.9V.01h-1.9v1.9h-1.9v1.9zm24.761-1.905h1.905V3.81h-1.905zm3.809 0h1.905V3.81h-1.905zm-7.619 0h1.905V3.81h-1.905zm-5.714 1.905v1.9h1.9v-1.9h1.906v-1.9h-1.906V.01h-1.9v1.9h-1.906v1.9zm72.38-.001h1.905v1.905h-1.905zm5.714-1.904h1.905V3.81h-1.905zm-3.809 0h1.905V3.81h-1.905z"/><path d="M308.56 3.809h1.905v1.905h-1.905zm5.715-1.904h1.905V3.81h-1.905zm-38.095 0h1.905V3.81h-1.905zm34.285 0h1.905V3.81h-1.905zm-26.665 0h1.905V3.81H283.8zm-3.809 0h1.905V3.81h-1.905zm7.619 0h1.905V3.81h-1.905zm7.617 0h1.905V3.81h-1.905zm-3.809 0h1.905V3.81h-1.905zm7.619 0h1.905V3.81h-1.905zm78.093 17.142h1.905v1.905h-1.905zm-95.235 15.238h1.905v1.905h-1.905z"/><path d="M279.991 32.445h1.905v1.905h-1.905zm-5.715 1.84h1.905v1.905h-1.905z"/><path d="M276.18 32.445h1.905v1.905h-1.905zm-3.809 0h1.905v1.905h-1.905zm-5.714 1.84h1.905v1.905h-1.905z"/><path d="M268.561 32.445h1.905v1.905h-1.905zm20.953 1.84h1.905v1.905h-1.905zm-5.714-1.84h1.905v1.905H283.8zm11.427 0h1.905v1.905h-1.905zm1.906 1.84h1.905v1.905h-1.905z"/><path d="M291.418 32.445h1.905v1.905h-1.905zm-26.666 0h1.905v1.905h-1.905zm22.858 0h1.905v1.905h-1.905zm-34.285-.065v-1.9h-1.9v1.9h-1.9v1.9h1.9v1.9h1.9v-1.9h1.9v-1.9zM224.753 7.619v1.9h1.9v-1.9h1.906v-1.9h-1.906V3.808h-1.9v1.9h-1.9v1.9zm-5.714 0h1.9v-1.9h-1.9V3.808h-1.9v1.9h-1.9v1.9h1.9v1.9h1.9zm7.618 7.618h1.906v-1.9h-1.906v-1.9h-1.9v1.9h-1.9v1.9h1.9v1.9h1.9zm-3.808-3.812h1.9v-1.9h-1.9v-1.9h-1.906v1.9h-1.9v1.9h1.9v1.906h1.906zM386.654 28.57h1.905v1.905h-1.905zM232.372 7.619v1.9h1.9v-1.9h1.906v-1.9h-1.906V3.808h-1.9v1.9h-1.906v1.9zm3.81-3.81h1.905v1.905h-1.905zm9.523 28.571v-1.9h-1.906v1.9h-1.9v1.9h1.9v1.9h1.906v-1.9h1.9v-1.9zm-3.809-1.904h1.9v-1.912h-1.9v-1.9h-1.9v1.9h-1.9v1.9h1.9v1.9h1.9zm-11.431-11.428h1.906v-1.9h-1.906v-1.9h-1.9v1.9h-1.906v1.9h1.906v1.9h1.9zm68.572 13.397h1.905v1.905h-1.905zm-38.094-.065v-1.9h-1.9v1.9h-1.9v1.9h1.9v1.9h1.9v-1.9h1.9v-1.9zm-26.668-9.524h1.906v-1.9h-1.906v-1.9h-1.9v1.9h-1.906v1.9h1.906v1.9h1.9zm3.811 3.81h1.9V24.76h-1.9v-1.9h-1.9v1.9h-1.906v1.9h1.906v1.9h1.9z"/><path d="M238.086 5.714v1.9h1.9v1.9h1.9v-1.9h1.9v-1.9h-1.9V3.808h-1.9v1.9zm127.616 24.761h1.905v1.905h-1.905zm7.619 0h1.905v1.905h-1.905zm-1.905 1.97h1.905v1.905h-1.905zm-3.809 0h1.905v1.905h-1.905zm-11.428 0h1.905v1.905h-1.905zm-53.332 0h1.905v1.905h-1.905zm49.522 0h1.905v1.905h-1.905zm7.619 0h1.905v1.905h-1.905zm22.857 0h1.905v1.905h-1.905zm-7.619 0h1.905v1.905h-1.905zm11.428 0h1.905v1.905h-1.905zm-3.809-3.875h1.905v1.905h-1.905zm-1.905 1.905h1.905v1.905h-1.905zm-1.905 1.97h1.905v1.905h-1.905zm-15.237 0h1.905v1.905h-1.905zm-47.619 1.84h1.905v1.905h-1.905zm32.381-1.84h1.905v1.905h-1.905zm-28.571 1.84h1.905v1.905h-1.905zm-11.429 0h1.905v1.905h-1.905zm15.238 0h1.905v1.905h-1.905z"/><path d="M304.751 34.285h1.905v1.905h-1.905zm7.619 0h1.905v1.905h-1.905zm28.57-1.84h1.905v1.905h-1.905zm3.81 0h1.905v1.905h-1.905zm-7.618 0h1.905v1.905h-1.905zm-5.714 1.84h1.905v1.905h-1.905zm3.809 0h1.905v1.905h-1.905zm-7.62 0h1.905v1.905h-1.905zm-20.951-5.715h1.905v1.905h-1.905zm3.809-15.237h1.905v1.905h-1.905zm-3.809 0h1.905v1.905h-1.905zm100.95 5.714h1.905v1.905h-1.905zm-1.905 1.905h1.905v1.905h-1.905zm-91.426-7.619h1.905v1.905h-1.905zm3.809 0h1.905v1.905h-1.905zm87.617 3.81h1.905v1.905h-1.905zm-100.95-5.715h1.905v1.905h-1.905z"/><path d="M302.847 9.524h1.905v1.905h-1.905zm102.854 15.237h1.905v1.905h-1.905zM299.037 9.524h1.905v1.905h-1.905zM409.51 20.952h1.905v1.905h-1.905zm0 3.809h1.905v1.905h-1.905zm0-7.618h1.905v1.905h-1.905zm0-15.238h1.905V3.81h-1.905zm7.619 34.284h1.905v1.905h-1.905zM340.94 13.333h1.905v1.905h-1.905zm-3.808 0h1.905v1.905h-1.905zm5.713 1.905h1.905v1.905h-1.905zm1.905-1.905h1.905v1.905h-1.905zm62.856 13.333h1.905v1.905h-1.905zm5.714 9.523h1.905v1.905h-1.905zm-83.807-22.856h1.905v1.905h-1.905zm79.997-3.809h1.905v1.905h-1.905zm-76.188 3.809h1.905v1.905h-1.905zm76.188 0h1.905v1.905h-1.905zm-83.807 0h1.905v1.905h-1.905zm83.807-7.581h1.905v1.905h-1.905zm-87.616 7.581h1.905v1.905h-1.905zm-39.999-5.714h1.905v1.905h-1.905zm119.996 1.905h1.905v1.905h-1.905zm-140.949 3.809v1.9h1.9v1.9h1.9v-1.9h1.906v-1.9h-1.906v-1.9h-1.9v1.9zm13.334-1.905h1.905v1.905h-1.905zm-7.619 0h1.905v1.905h-1.905zm135.234-9.523h1.905V3.81h-1.905zM268.562 13.333v1.9h1.9v1.9h1.9v-1.9h1.906v-1.9h-1.906v-1.9h-1.9v1.9zm133.329-7.581h1.905v1.905h-1.905zm-3.808 3.772h1.905v1.905h-1.905zm-146.664 1.904h1.905v1.905h-1.905zm150.472 1.905h1.905v1.905h-1.905z"/><path d="M259.038 11.428h1.905v1.905h-1.905zm139.045 1.905h1.905v1.905h-1.905zm1.904-1.905h1.905v1.905h-1.905zm-146.663 1.905v1.9h1.9v1.9h1.9v-1.9h1.9v-1.9h-1.9v-1.9h-1.9v1.9zm32.38-5.714h1.905v1.905h-1.905zm3.81 0h1.905v1.905h-1.905zM409.51 28.57h1.905v1.905h-1.905zM295.227 9.524h1.905v1.905h-1.905zM409.51 32.445h1.905v1.905h-1.905zm-3.809-3.875h1.905v1.905h-1.905zM293.323 7.619h1.905v1.905h-1.905zm55.237 5.714h1.905v1.905h-1.905zm57.141 22.856h1.905v1.905h-1.905zM276.18 9.524h1.905v1.905h-1.905zm129.521 22.921h1.905v1.905h-1.905zM278.085 7.619h1.905v1.905h-1.905zm131.425 28.57h1.905v1.905h-1.905z"/><path d="M407.606 34.285h1.905v1.905h-1.905zM289.514 22.857h1.905v1.905h-1.905zm131.425 13.332h1.905v1.905h-1.905zM308.56 26.666h1.905v1.905h-1.905zm-3.809 0h1.905v1.905h-1.905zm-3.809 0h1.905v1.905h-1.905zm119.997 5.779h1.905v1.905h-1.905zm1.905 1.84h1.905v1.905h-1.905zm-123.807-9.524h1.905v1.905h-1.905z"/><path d="M424.748 36.189h1.905v1.905h-1.905zm-7.619-30.437h1.905v1.905h-1.905zM297.133 7.619h1.905v1.905h-1.905zm119.996 1.905h1.905v1.905h-1.905zM310.465 28.57h1.905v1.905h-1.905zM417.129 1.905h1.905V3.81h-1.905zM314.275 28.57h1.905v1.905h-1.905zm110.473-15.237h1.905v1.905h-1.905zm-142.853 9.524h1.905v1.905h-1.905zm142.853 9.588h1.905v1.905h-1.905zm0-15.302h1.905v1.905h-1.905zm0-7.619h1.905v1.905h-1.905zM274.276 22.857h1.905v1.905h-1.905zm15.237-.001v-1.9h-1.9v-1.9h-1.9v1.9h-1.9v1.9h1.9v1.9h1.9v-1.9zm-7.619 0v-1.9h-1.9v-1.9h-1.906v1.9h-1.9v1.9h1.9v1.9h1.906v-1.9zm40 5.714h1.905v1.905h-1.905zm102.854 0h1.905v1.905h-1.905zm-131.425-5.713h1.905v1.905h-1.905zm3.81 0h1.905v1.905h-1.905zm-51.428-9.524v1.9h1.9v1.9h1.9v-1.9h1.9v-1.9h-1.9v-1.9h-1.9v1.9zm179.043 11.428h1.905v1.905h-1.905zm0-3.809h1.905v1.905h-1.905zm-9.523 13.333h1.905v1.905h-1.905z"/><path d="M417.129 32.445h1.905v1.905h-1.905zm0-19.112h1.905v1.905h-1.905zm-3.809 19.112h1.905v1.905h-1.905zm-68.57-11.493h1.905v1.905h-1.905zm72.379 7.618h1.905v1.905h-1.905zm-3.809 0h1.905v1.905h-1.905zm-72.38-11.427h1.905v1.905h-1.905zm7.62 0h1.905v1.905h-1.905zm3.809 0h1.905v1.905h-1.905zm-1.905-1.905h1.905v1.905h-1.905zm1.905 5.714h1.905v1.905h-1.905zm-3.809 0h1.905v1.905h-1.905zm-5.715-1.905h1.905v1.905h-1.905zm3.81 0h1.905v1.905h-1.905zm-5.715 1.905h1.905v1.905h-1.905zm-7.618 3.809h1.905v1.905h-1.905zm83.807-3.809h1.905v1.905h-1.905zm-87.616 3.809h1.905v1.905h-1.905zm-1.906 1.905h1.905v1.905h-1.905zm89.522-9.523h1.905v1.905h-1.905z"/><path d="M325.703 28.57h1.905v1.905h-1.905zm11.429-7.618h1.905v1.905h-1.905zm78.093 5.714h1.905v1.905h-1.905zm1.904-1.905h1.905v1.905h-1.905zm-72.379-7.618h1.905v1.905h-1.905zm-5.714 1.904h1.905v1.905h-1.905zm-3.809 3.81h1.905v1.905h-1.905zm78.093 1.904h1.905v1.905h-1.905zm-95.236 3.809h1.905v1.905h-1.905zm45.714-7.618h1.905v1.905h-1.905zm0 3.809h1.905v1.905h-1.905zM344.75 36.189h1.905v1.905h-1.905zm15.238-11.428h1.905v1.905h-1.905zm1.905-5.714h1.905v1.905h-1.905zm-3.81 3.81h1.905v1.905h-1.905zm1.905-1.905h1.905v1.905h-1.905zm-7.619-11.428h1.905v1.905h-1.905zm1.905 1.904h1.905v1.905h-1.905zm5.714 5.715h1.905v1.905h-1.905z"/><path d="M356.179 24.761h1.905v1.905h-1.905zM340.94 36.189h1.905v1.905h-1.905zm15.239-22.856h1.905v1.905h-1.905zm1.904 1.905h1.905v1.905h-1.905zm-22.856 11.428h1.905v1.905h-1.905zm-3.809 0h1.905v1.905h-1.905zm22.856 7.619h1.905v1.905h-1.905zm-1.905 1.904h1.905v1.905h-1.905zM348.56 9.524h1.905v1.905h-1.905zm-24.762 20.951h1.905v1.905h-1.905zm5.715-1.905h1.905v1.905h-1.905zm-1.906 1.905h1.905v1.905h-1.905zm13.333-5.714h1.905v1.905h-1.905zm3.81 0h1.905v1.905h-1.905zm3.81 0h1.905v1.905h-1.905zm-1.905 9.524h1.905v1.905h-1.905zm1.905 1.904h1.905v1.905h-1.905zm3.809-11.428h1.905v1.905h-1.905zm-15.237 0h1.905v1.905h-1.905zm19.047 11.428h1.905v1.905h-1.905zM314.275 9.524h1.905v1.905h-1.905zm-3.81 0h1.905v1.905h-1.905zm11.429 26.665h1.905v1.905h-1.905z"/><path d="M316.179 11.428h1.905v1.905h-1.905zm9.524 24.761h1.905v1.905h-1.905zm-7.619-26.665h1.905v1.905h-1.905zm0 26.665h1.905v1.905h-1.905zm-17.142-28.57h1.905v1.905h-1.905zm20.952 1.905h1.905v1.905h-1.905zm-17.143-1.905h1.905v1.905h-1.905zm3.809 3.809h1.905v1.905h-1.905zm1.905 24.761h1.905v1.905h-1.905zm36.19-24.761h1.905v1.905h-1.905zm-32.38 24.761h1.905v1.905h-1.905z"/><path d="M306.656 9.524h1.905v1.905h-1.905zm32.38 24.761h1.905v1.905h-1.905zm0-22.857h1.905v1.905h-1.905zm-15.238 0h1.905v1.905h-1.905z"/><path d="M337.132 9.524h1.905v1.905h-1.905zm3.808 0h1.905v1.905h-1.905zm3.81 0h1.905v1.905h-1.905zm57.141 7.619h1.905v1.905h-1.905zm-68.569-7.619h1.905v1.905h-1.905zm-3.809 26.665h1.905v1.905h-1.905zm0-26.665h1.905v1.905h-1.905zm-3.81 0h1.905v1.905h-1.905zm7.619 26.665h1.905v1.905h-1.905z"/><path d="M331.418 11.428h1.905v1.905h-1.905zm5.714 24.761h1.905v1.905h-1.905zm60.951 0h1.905v1.905h-1.905zm-139.045-9.523h1.905v1.905h-1.905zm1.904-1.905h1.905v1.905h-1.905z"/><path d="M399.987 34.285h1.905v1.905h-1.905zm-5.714 1.904h1.905v1.905h-1.905z"/><path d="M398.083 32.445h1.905v1.905h-1.905zm-144.758-7.684v-1.9h-1.9v1.9h-1.9v1.9h1.9v1.9h1.9v-1.9h1.9v-1.906zm3.808 0h1.905v1.905h-1.905zm11.428 0h1.905v1.905h-1.905zm123.807 9.524h1.905v1.905h-1.905zm-119.997-9.524h1.905v1.905h-1.905zm121.902 7.684h1.905v1.905h-1.905zm-129.521-7.684h1.905v1.905h-1.905zm1.905 1.905h1.905v1.905h-1.905zm131.426-5.714h1.905v1.905h-1.905zm-156.187-5.715h1.9v-1.9h-1.9v-1.9h-1.9v1.9h-1.9v1.9h1.9v1.9h1.9zm159.995 9.524h1.905v1.905h-1.905zm0-3.809h1.905v1.905h-1.905z"/><path d="M390.464 36.189h1.905v1.905h-1.905zm-70.475-5.714h1.905v1.905h-1.905zm78.094-13.332h1.905v1.905h-1.905z"/><path d="M399.987 19.047h1.905v1.905h-1.905zm-154.282.001h1.9v-1.9h-1.9v-1.9h-1.906v1.9h-1.9v1.9h1.9v1.9h1.906zm3.809 3.808h1.9v-1.9h-1.9v-1.9h-1.9v1.9h-1.9v1.9h1.9v1.9h1.9zm148.569 5.714h1.905v1.905h-1.905zm3.808 0h1.905v1.905h-1.905z"/><path d="M399.987 26.666h1.905v1.905h-1.905zm-1.904-1.905h1.905v1.905h-1.905zm3.808 7.684h1.905v1.905h-1.905zM243.8 11.428h1.905v1.905H243.8zm55.237 17.142h1.905v1.905h-1.905zM424.748 5.752h1.905v1.905h-1.905zm-57.141 30.437h1.905v1.905h-1.905zm-93.331-9.523h1.905v1.905h-1.905zm95.236 7.619h1.905v1.905h-1.905z"/><path d="M371.416 36.189h1.905v1.905h-1.905zm-74.283-9.523h1.905v1.905h-1.905zm19.046 3.809h1.905v1.905h-1.905zm-3.809 0h1.905v1.905h-1.905zm-17.143-5.714h1.905v1.905h-1.905zm64.761 11.428h1.905v1.905h-1.905zm-51.428-5.714h1.905v1.905h-1.905zm53.333 3.81h1.905v1.905h-1.905zm1.905 1.904h1.905v1.905h-1.905zm-60.951-7.619h1.905v1.905h-1.905zm-22.856-3.809h1.905v1.905h-1.905zm102.854 11.428h1.905v1.905h-1.905z"/><path d="M384.749 34.285h1.905v1.905h-1.905zm-102.854-7.619h1.905v1.905h-1.905zm104.759 9.523h1.905v1.905h-1.905zm-11.428 0h1.905v1.905h-1.905zM276.18 24.761h1.905v1.905h-1.905zm13.334 1.905h1.905v1.905h-1.905zm1.904-1.905h1.905v1.905h-1.905z"/><path d="M377.13 34.285h1.905v1.905h-1.905zm1.905 1.904h1.905v1.905h-1.905zM283.8 24.761h1.905v1.905H283.8zm3.81 0h1.905v1.905h-1.905z"/></g></svg>
