<svg xmlns="http://www.w3.org/2000/svg" width="16" height="16" viewBox="0 0 16 16">
    <path data-name="路径 10325" d="m79.439 77.688-.466-2.721c0-.021 0-.043-.007-.064a.578.578 0 0 0-.664-.47c-.021 0-.043.009-.062.014l-2.721.466a.571.571 0 0 0 .193 1.126l1.52-.261a6.862 6.862 0 0 1-12.587-3.79c0-.02 0-.039-.007-.059a.571.571 0 0 0-1.132.059v.063a7.916 7.916 0 0 0 .634 3.047 8.111 8.111 0 0 0 4.26 4.268 7.866 7.866 0 0 0 3.107.634 8.025 8.025 0 0 0 6.58-3.445l.227 1.324a.571.571 0 0 0 1.125-.191zM63.561 66.312l.466 2.721a.2.2 0 0 0 .007.064.578.578 0 0 0 .664.47c.021 0 .043-.009.063-.014l2.721-.466a.571.571 0 0 0-.193-1.126l-1.52.261a6.862 6.862 0 0 1 12.588 3.79c0 .02 0 .039.007.059a.571.571 0 0 0 1.132-.059v-.062a7.916 7.916 0 0 0-.634-3.047 8.11 8.11 0 0 0-4.262-4.269A7.863 7.863 0 0 0 71.493 64a8.026 8.026 0 0 0-6.58 3.445l-.225-1.328a.572.572 0 1 0-1.127.195z" transform="translate(-63.5 -64)" style="fill:#afafaf"/>
</svg>
