<svg xmlns="http://www.w3.org/2000/svg" width="80" height="80" viewBox="0 0 80 80">
    <defs>
        <clipPath id="ivsys97wra">
            <path data-name="矩形 27" style="fill:none" d="M0 0h64v58H0z"/>
        </clipPath>
    </defs>
    <g data-name="组 33" style="clip-path:url(#ivsys97wra)" transform="translate(8 11)">
        <path data-name="路径 131" d="M48 24A24 24 0 1 1 24 0a24 24 0 0 1 24 24" style="fill:#f0f1f2"/>
        <path data-name="路径 132" d="M58 11h-5v6h10v-1a5 5 0 0 0-5-5" style="fill:#f0f1f2"/>
        <path data-name="路径 133" d="M56 17h7v-1a5 5 0 0 0-5-5h-5" style="stroke-miterlimit:10;stroke-width:2px;stroke:#000;fill:none"/>
        <path data-name="路径 134" d="M22 16a5 5 0 0 1 5-5h31a5 5 0 0 0-5 5v36a5 5 0 0 1-5 5H22z" style="fill:#fff"/>
        <path data-name="路径 135" d="M22 19v-3a5 5 0 0 1 5-5h31a5 5 0 0 0-5 5v36a5 5 0 0 1-5 5H22V46" style="stroke-miterlimit:10;stroke-width:2px;stroke:#000;fill:none"/>
        <path data-name="路径 136" d="M16 52a5 5 0 0 0 5 5h27a5 5 0 0 1-5-5z" style="fill:#b3b3b3"/>
        <path data-name="路径 137" d="M16 52a5 5 0 0 0 5 5h27a5 5 0 0 1-5-5z" style="stroke-miterlimit:10;stroke-width:2px;stroke:#000;fill:none"/>
        <path data-name="路径 138" d="M42 25v6m-3-3h6m-3-3v6m-3-3h6m14 3v6m-3-3h6m-3-3v6m-3-3h6m-16 4v6m-3-3h6m-3-3v6m-3-3h6" style="stroke:#c6c8ca;stroke-miterlimit:10;stroke-width:2px;fill:none"/>
        <path data-name="路径 139" d="M25.97 26.133a13.368 13.368 0 0 1-.844 2.909c-.613-2.426-.822-4.51-3.7-6.6a20.061 20.061 0 0 0-3.376-1.645C13.4 19.05 9.139 17.859 5.8 14c-1.114 2.775-.98 6.257-.16 9.686 1.1 3.336 3.047 4.2 5.2 5.557a14.3 14.3 0 0 1-3.376-.216 28.113 28.113 0 0 0 3.057 5.342c3.22 4.08 6.016 4.086 9.341 4.626a16.606 16.606 0 0 1-2.61 1.2c2.921 1.717 11.388 3.516 14.9 4.161 1.222-4.08-1.652-13.421-6.187-18.227" style="fill:#b3b3b3"/>
        <path data-name="路径 140" d="M25.97 26.133a13.368 13.368 0 0 1-.844 2.909c-.613-2.426-.822-4.51-3.7-6.6a20.061 20.061 0 0 0-3.376-1.645C13.4 19.05 9.139 17.859 5.8 14c-1.114 2.775-.98 6.257-.16 9.686 1.1 3.336 3.047 4.2 5.2 5.557a14.3 14.3 0 0 1-3.376-.216 28.113 28.113 0 0 0 3.057 5.342c3.22 4.08 6.016 4.086 9.341 4.626a16.606 16.606 0 0 1-2.61 1.2c2.921 1.717 11.388 3.516 14.9 4.161 1.227-4.076-1.652-13.417-6.182-18.223z" style="stroke-miterlimit:10;stroke-width:2px;stroke:#000;fill:none"/>
        <path data-name="直线 1" transform="translate(13 25)" style="stroke-linecap:round;stroke-miterlimit:10;stroke-width:2px;stroke:#000;fill:none" d="m0 0 23 23"/>
    </g>
    <path data-name="矩形 1435" style="fill:none" d="M0 0h80v80H0z"/>
</svg>
