<svg id="wallet" xmlns="http://www.w3.org/2000/svg" width="24" height="24" viewBox="0 0 24 24">
    <defs>
        <style>
            .cls-2{fill:none;stroke:#afafaf;stroke-linecap:round;stroke-linejoin:round}
        </style>
    </defs>
    <path id="矩形_1334" data-name="矩形 1334" style="fill:none" d="M0 0h24v24H0z"/>
    <g id="组_11616" data-name="组 11616" transform="translate(.17 -.118)">
        <g id="组_11615" data-name="组 11615" transform="translate(3.829 3.118)">
            <g id="组_8485" data-name="组 8485" transform="translate(0 2.386)">
                <path id="路径_867" data-name="路径 867" class="cls-2" d="M6.778 11.588H1.363A1.364 1.364 0 0 1 0 10.225V1.363A1.364 1.364 0 0 1 1.363 0h10.566a2.385 2.385 0 0 1 2.386 2.386v1.666"/>
            </g>
            <g id="组_8489" data-name="组 8489" transform="translate(9.202 5.113)">
                <path id="路径_868" data-name="路径 868" class="cls-2" d="M5.112 2.13a1.231 1.231 0 0 1-1.18 1.278H1.18A1.231 1.231 0 0 1 0 2.13v-.852A1.232 1.232 0 0 1 1.18 0h2.752a1.231 1.231 0 0 1 1.18 1.278v.852z"/>
            </g>
            <g id="组_8490" data-name="组 8490" transform="translate(10.565 6.317)">
                <path id="路径_869" data-name="路径 869" d="M1 .5A.5.5 0 1 1 .5 0a.5.5 0 0 1 .5.5z" style="fill:#afafaf"/>
            </g>
            <g id="组_8486" data-name="组 8486" transform="translate(2.726)">
                <path id="路径_870" data-name="路径 870" class="cls-2" d="m9.461 2.4-.6-2.4L0 2.386"/>
            </g>
        </g>
        <path id="路径_10360" data-name="路径 10360" d="M3.319 2.328 4.49 1.157a1.644 1.644 0 1 1 2.324 2.325l-1.17 1.171.461.461 1.171-1.17A2.308 2.308 0 1 0 4.012.68L2.841 1.85l.478.478zm1.317 3.308L3.482 6.81a1.646 1.646 0 0 1-2.324-2.332L2.328 3.3l-.462-.463L.68 4a2.312 2.312 0 1 0 3.264 3.273L5.114 6.1l-.478-.463z" transform="translate(11.557 12.546)" style="stroke-width:.2px;fill:#afafaf;stroke:#afafaf"/>
    </g>
    <path id="路径_10361" data-name="路径 10361" d="m724.726-42.89 1.942-1.969" transform="translate(-710.163 60.398)" style="stroke-linecap:round;stroke:#afafaf;fill:none"/>
</svg>
